<?plantuml 1.2026.2beta3?><svg xmlns="http://www.w3.org/2000/svg" xmlns:xlink="http://www.w3.org/1999/xlink" contentStyleType="text/css" data-diagram-type="ACTIVITY" height="1216px" preserveAspectRatio="none" style="width:434px;height:1216px;background:#FFFFFF;" version="1.1" viewBox="0 0 434 1216" width="434px" zoomAndPan="magnify"><title>DAI &#8212; Activity Diagram (Workflow global patient)</title><defs/><g><g class="title" data-source-line="1"><text fill="#000000" font-family="sans-serif" font-size="14" font-weight="bold" lengthAdjust="spacing" textLength="391.4395" x="20" y="32.9951">DAI &#8212; Activity Diagram (Workflow global patient)</text></g><ellipse cx="225.0674" cy="57.2969" fill="#222222" rx="10" ry="10" style="stroke:#222222;stroke-width:1;"/><rect fill="#F1F1F1" height="33.9688" rx="12.5" ry="12.5" style="stroke:#181818;stroke-width:0.5;" width="183.1602" x="133.4873" y="87.2969"/><text fill="#000000" font-family="sans-serif" font-size="12" lengthAdjust="spacing" textLength="163.1602" x="143.4873" y="108.4355">Cr&#233;ation / s&#233;lection patient</text><rect fill="#F1F1F1" height="33.9688" rx="12.5" ry="12.5" style="stroke:#181818;stroke-width:0.5;" width="202.4082" x="123.8633" y="141.2656"/><text fill="#000000" font-family="sans-serif" font-size="12" lengthAdjust="spacing" textLength="182.4082" x="133.8633" y="162.4043">D&#233;but parcours p&#233;riop&#233;ratoire</text><rect fill="none" height="244.1719" style="stroke:#000000;stroke-width:1.5;" width="385.5742" x="32.2803" y="185.2344"/><path d="M87.5957,185.2344 L87.5957,194.5313 L77.5957,204.5313 L32.2803,204.5313" fill="none" style="stroke:#000000;stroke-width:1.5;"/><text fill="#000000" font-family="sans-serif" font-size="14" lengthAdjust="spacing" textLength="45.3154" x="35.2803" y="199.2295">Pr&#233;-op</text><rect fill="#F1F1F1" height="33.9688" rx="12.5" ry="12.5" style="stroke:#181818;stroke-width:0.5;" width="195.4004" x="127.3672" y="221.5313"/><text fill="#000000" font-family="sans-serif" font-size="12" lengthAdjust="spacing" textLength="175.4004" x="137.3672" y="242.6699">Patient remplit questionnaire</text><rect fill="#F1F1F1" height="33.9688" rx="12.5" ry="12.5" style="stroke:#181818;stroke-width:0.5;" width="365.5742" x="42.2803" y="275.5"/><text fill="#000000" font-family="sans-serif" font-size="12" lengthAdjust="spacing" textLength="345.5742" x="52.2803" y="296.6387">Calcul automatique scores (ASA, RCRI, Apfel, Mallampati)</text><rect fill="#F1F1F1" height="33.9688" rx="12.5" ry="12.5" style="stroke:#181818;stroke-width:0.5;" width="206.293" x="121.9209" y="329.4688"/><text fill="#000000" font-family="sans-serif" font-size="12" lengthAdjust="spacing" textLength="186.293" x="131.9209" y="350.6074">G&#233;n&#233;ration alertes potentielles</text><rect fill="#F1F1F1" height="33.9688" rx="12.5" ry="12.5" style="stroke:#181818;stroke-width:0.5;" width="256.3789" x="96.8779" y="383.4375"/><text fill="#000000" font-family="sans-serif" font-size="12" lengthAdjust="spacing" textLength="236.3789" x="106.8779" y="404.5762">Validation / correction par anesth&#233;siste</text><rect fill="none" height="416.1094" style="stroke:#000000;stroke-width:1.5;" width="399.4531" x="16.585" y="439.4063"/><path d="M117.0313,439.4063 L117.0313,448.7031 L107.0313,458.7031 L16.585,458.7031" fill="none" style="stroke:#000000;stroke-width:1.5;"/><text fill="#000000" font-family="sans-serif" font-size="14" lengthAdjust="spacing" textLength="90.4463" x="19.585" y="453.4014">Per-op (Bloc)</text><rect fill="#F1F1F1" height="33.9688" rx="12.5" ry="12.5" style="stroke:#181818;stroke-width:0.5;" width="169.1211" x="140.5068" y="475.7031"/><text fill="#000000" font-family="sans-serif" font-size="12" lengthAdjust="spacing" textLength="149.1211" x="150.5068" y="496.8418">D&#233;marrer session per-op</text><rect fill="#F1F1F1" height="33.9688" rx="12.5" ry="12.5" style="stroke:#181818;stroke-width:0.5;" width="233.2227" x="108.4561" y="529.6719"/><text fill="#000000" font-family="sans-serif" font-size="12" lengthAdjust="spacing" textLength="213.2227" x="118.4561" y="550.8105">Acquisition constantes (temps r&#233;el)</text><rect fill="#F1F1F1" height="33.9688" rx="12.5" ry="12.5" style="stroke:#181818;stroke-width:0.5;" width="322.5371" x="63.7988" y="583.6406"/><text fill="#000000" font-family="sans-serif" font-size="12" lengthAdjust="spacing" textLength="302.5371" x="73.7988" y="604.7793">Enregistrement &#233;v&#233;nements (m&#233;dicaments/actes)</text><polygon fill="#F1F1F1" points="168.5071,637.6094,281.6277,637.6094,293.6277,649.6094,281.6277,661.6094,168.5071,661.6094,156.5071,649.6094,168.5071,637.6094" style="stroke:#181818;stroke-width:0.5;"/><text fill="#000000" font-family="sans-serif" font-size="11" lengthAdjust="spacing" textLength="113.1206" x="168.5071" y="653.4175">Anomalie d&#233;tect&#233;e ?</text><text fill="#000000" font-family="sans-serif" font-size="11" lengthAdjust="spacing" textLength="18.686" x="137.821" y="647.0151">Oui</text><text fill="#000000" font-family="sans-serif" font-size="11" lengthAdjust="spacing" textLength="21.9302" x="293.6277" y="647.0151">Non</text><rect fill="#F1F1F1" height="33.9688" rx="12.5" ry="12.5" style="stroke:#181818;stroke-width:0.5;" width="126.9688" x="64.7197" y="671.6094"/><text fill="#000000" font-family="sans-serif" font-size="12" lengthAdjust="spacing" textLength="106.9688" x="74.7197" y="692.748">D&#233;clencher alerte</text><rect fill="#F1F1F1" height="33.9688" rx="12.5" ry="12.5" style="stroke:#181818;stroke-width:0.5;" width="199.2383" x="28.585" y="725.5781"/><text fill="#000000" font-family="sans-serif" font-size="12" lengthAdjust="spacing" textLength="179.2383" x="38.585" y="746.7168">Acquittement + commentaire</text><rect fill="#F1F1F1" height="33.9688" rx="12.5" ry="12.5" style="stroke:#181818;stroke-width:0.5;" width="148.2148" x="247.8232" y="671.6094"/><text fill="#000000" font-family="sans-serif" font-size="12" lengthAdjust="spacing" textLength="128.2148" x="257.8232" y="692.748">Continuer monitoring</text><polygon fill="#F1F1F1" points="225.0674,765.5469,237.0674,777.5469,225.0674,789.5469,213.0674,777.5469,225.0674,765.5469" style="stroke:#181818;stroke-width:0.5;"/><rect fill="#F1F1F1" height="33.9688" rx="12.5" ry="12.5" style="stroke:#181818;stroke-width:0.5;" width="114.7813" x="167.6768" y="809.5469"/><text fill="#000000" font-family="sans-serif" font-size="12" lengthAdjust="spacing" textLength="94.7813" x="177.6768" y="830.6855">Fin session bloc</text><rect fill="none" height="190.2031" style="stroke:#000000;stroke-width:1.5;" width="226.2461" x="111.9443" y="865.5156"/><path d="M219.958,865.5156 L219.958,874.8125 L209.958,884.8125 L111.9443,884.8125" fill="none" style="stroke:#000000;stroke-width:1.5;"/><text fill="#000000" font-family="sans-serif" font-size="14" lengthAdjust="spacing" textLength="98.0137" x="114.9443" y="879.5107">Post-op (SSPI)</text><rect fill="#F1F1F1" height="33.9688" rx="12.5" ry="12.5" style="stroke:#181818;stroke-width:0.5;" width="78.8164" x="185.6592" y="901.8125"/><text fill="#000000" font-family="sans-serif" font-size="12" lengthAdjust="spacing" textLength="58.8164" x="195.6592" y="922.9512">Suivi SSPI</text><rect fill="#F1F1F1" height="33.9688" rx="12.5" ry="12.5" style="stroke:#181818;stroke-width:0.5;" width="132.9512" x="158.5918" y="955.7813"/><text fill="#000000" font-family="sans-serif" font-size="12" lengthAdjust="spacing" textLength="112.9512" x="168.5918" y="976.9199">&#201;valuation douleur</text><rect fill="#F1F1F1" height="33.9688" rx="12.5" ry="12.5" style="stroke:#181818;stroke-width:0.5;" width="206.2461" x="121.9443" y="1009.75"/><text fill="#000000" font-family="sans-serif" font-size="12" lengthAdjust="spacing" textLength="186.2461" x="131.9443" y="1030.8887">Calcul score de sortie (Aldrete)</text><rect fill="#F1F1F1" height="33.9688" rx="12.5" ry="12.5" style="stroke:#181818;stroke-width:0.5;" width="186.3066" x="131.9141" y="1075.7188"/><text fill="#000000" font-family="sans-serif" font-size="12" lengthAdjust="spacing" textLength="166.3066" x="141.9141" y="1096.8574">G&#233;n&#233;rer rapport anesth&#233;sie</text><rect fill="#F1F1F1" height="33.9688" rx="12.5" ry="12.5" style="stroke:#181818;stroke-width:0.5;" width="202.6133" x="123.7607" y="1129.6875"/><text fill="#000000" font-family="sans-serif" font-size="12" lengthAdjust="spacing" textLength="182.6133" x="133.7607" y="1150.8262">Archiver et rendre consultable</text><ellipse cx="225.0674" cy="1194.6563" fill="none" rx="11" ry="11" style="stroke:#222222;stroke-width:1;"/><ellipse cx="225.0674" cy="1194.6563" fill="#222222" rx="6" ry="6" style="stroke:#222222;stroke-width:1;"/><line style="stroke:#181818;stroke-width:1;" x1="225.0674" x2="225.0674" y1="67.2969" y2="87.2969"/><polygon fill="#181818" points="221.0674,77.2969,225.0674,87.2969,229.0674,77.2969,225.0674,81.2969" style="stroke:#181818;stroke-width:1;"/><line style="stroke:#181818;stroke-width:1;" x1="225.0674" x2="225.0674" y1="121.2656" y2="141.2656"/><polygon fill="#181818" points="221.0674,131.2656,225.0674,141.2656,229.0674,131.2656,225.0674,135.2656" style="stroke:#181818;stroke-width:1;"/><line style="stroke:#181818;stroke-width:1;" x1="225.0674" x2="225.0674" y1="255.5" y2="275.5"/><polygon fill="#181818" points="221.0674,265.5,225.0674,275.5,229.0674,265.5,225.0674,269.5" style="stroke:#181818;stroke-width:1;"/><line style="stroke:#181818;stroke-width:1;" x1="225.0674" x2="225.0674" y1="309.4688" y2="329.4688"/><polygon fill="#181818" points="221.0674,319.4688,225.0674,329.4688,229.0674,319.4688,225.0674,323.4688" style="stroke:#181818;stroke-width:1;"/><line style="stroke:#181818;stroke-width:1;" x1="225.0674" x2="225.0674" y1="363.4375" y2="383.4375"/><polygon fill="#181818" points="221.0674,373.4375,225.0674,383.4375,229.0674,373.4375,225.0674,377.4375" style="stroke:#181818;stroke-width:1;"/><line style="stroke:#181818;stroke-width:1;" x1="225.0674" x2="225.0674" y1="175.2344" y2="221.5313"/><polygon fill="#181818" points="221.0674,211.5313,225.0674,221.5313,229.0674,211.5313,225.0674,215.5313" style="stroke:#181818;stroke-width:1;"/><line style="stroke:#181818;stroke-width:1;" x1="225.0674" x2="225.0674" y1="509.6719" y2="529.6719"/><polygon fill="#181818" points="221.0674,519.6719,225.0674,529.6719,229.0674,519.6719,225.0674,523.6719" style="stroke:#181818;stroke-width:1;"/><line style="stroke:#181818;stroke-width:1;" x1="225.0674" x2="225.0674" y1="563.6406" y2="583.6406"/><polygon fill="#181818" points="221.0674,573.6406,225.0674,583.6406,229.0674,573.6406,225.0674,577.6406" style="stroke:#181818;stroke-width:1;"/><line style="stroke:#181818;stroke-width:1;" x1="128.2041" x2="128.2041" y1="705.5781" y2="725.5781"/><polygon fill="#181818" points="124.2041,715.5781,128.2041,725.5781,132.2041,715.5781,128.2041,719.5781" style="stroke:#181818;stroke-width:1;"/><line style="stroke:#181818;stroke-width:1;" x1="156.5071" x2="128.2041" y1="649.6094" y2="649.6094"/><line style="stroke:#181818;stroke-width:1;" x1="128.2041" x2="128.2041" y1="649.6094" y2="671.6094"/><polygon fill="#181818" points="124.2041,661.6094,128.2041,671.6094,132.2041,661.6094,128.2041,665.6094" style="stroke:#181818;stroke-width:1;"/><line style="stroke:#181818;stroke-width:1;" x1="293.6277" x2="321.9307" y1="649.6094" y2="649.6094"/><line style="stroke:#181818;stroke-width:1;" x1="321.9307" x2="321.9307" y1="649.6094" y2="671.6094"/><polygon fill="#181818" points="317.9307,661.6094,321.9307,671.6094,325.9307,661.6094,321.9307,665.6094" style="stroke:#181818;stroke-width:1;"/><line style="stroke:#181818;stroke-width:1;" x1="128.2041" x2="128.2041" y1="759.5469" y2="777.5469"/><line style="stroke:#181818;stroke-width:1;" x1="128.2041" x2="213.0674" y1="777.5469" y2="777.5469"/><polygon fill="#181818" points="203.0674,773.5469,213.0674,777.5469,203.0674,781.5469,207.0674,777.5469" style="stroke:#181818;stroke-width:1;"/><line style="stroke:#181818;stroke-width:1;" x1="321.9307" x2="321.9307" y1="705.5781" y2="777.5469"/><line style="stroke:#181818;stroke-width:1;" x1="321.9307" x2="237.0674" y1="777.5469" y2="777.5469"/><polygon fill="#181818" points="247.0674,773.5469,237.0674,777.5469,247.0674,781.5469,243.0674,777.5469" style="stroke:#181818;stroke-width:1;"/><line style="stroke:#181818;stroke-width:1;" x1="225.0674" x2="225.0674" y1="617.6094" y2="637.6094"/><polygon fill="#181818" points="221.0674,627.6094,225.0674,637.6094,229.0674,627.6094,225.0674,631.6094" style="stroke:#181818;stroke-width:1;"/><line style="stroke:#181818;stroke-width:1;" x1="225.0674" x2="225.0674" y1="789.5469" y2="809.5469"/><polygon fill="#181818" points="221.0674,799.5469,225.0674,809.5469,229.0674,799.5469,225.0674,803.5469" style="stroke:#181818;stroke-width:1;"/><line style="stroke:#181818;stroke-width:1;" x1="225.0674" x2="225.0674" y1="417.4063" y2="475.7031"/><polygon fill="#181818" points="221.0674,465.7031,225.0674,475.7031,229.0674,465.7031,225.0674,469.7031" style="stroke:#181818;stroke-width:1;"/><line style="stroke:#181818;stroke-width:1;" x1="225.0674" x2="225.0674" y1="935.7813" y2="955.7813"/><polygon fill="#181818" points="221.0674,945.7813,225.0674,955.7813,229.0674,945.7813,225.0674,949.7813" style="stroke:#181818;stroke-width:1;"/><line style="stroke:#181818;stroke-width:1;" x1="225.0674" x2="225.0674" y1="989.75" y2="1009.75"/><polygon fill="#181818" points="221.0674,999.75,225.0674,1009.75,229.0674,999.75,225.0674,1003.75" style="stroke:#181818;stroke-width:1;"/><line style="stroke:#181818;stroke-width:1;" x1="225.0674" x2="225.0674" y1="843.5156" y2="901.8125"/><polygon fill="#181818" points="221.0674,891.8125,225.0674,901.8125,229.0674,891.8125,225.0674,895.8125" style="stroke:#181818;stroke-width:1;"/><line style="stroke:#181818;stroke-width:1;" x1="225.0674" x2="225.0674" y1="1043.7188" y2="1075.7188"/><polygon fill="#181818" points="221.0674,1065.7188,225.0674,1075.7188,229.0674,1065.7188,225.0674,1069.7188" style="stroke:#181818;stroke-width:1;"/><line style="stroke:#181818;stroke-width:1;" x1="225.0674" x2="225.0674" y1="1109.6875" y2="1129.6875"/><polygon fill="#181818" points="221.0674,1119.6875,225.0674,1129.6875,229.0674,1119.6875,225.0674,1123.6875" style="stroke:#181818;stroke-width:1;"/><line style="stroke:#181818;stroke-width:1;" x1="225.0674" x2="225.0674" y1="1163.6563" y2="1183.6563"/><polygon fill="#181818" points="221.0674,1173.6563,225.0674,1183.6563,229.0674,1173.6563,225.0674,1177.6563" style="stroke:#181818;stroke-width:1;"/><?plantuml-src PLB1ZjCm4BtdAqPxIaJHtji32YsW7e1gAy7PTQRjY8cTjST5225nvSvFv3lo9tm9OwTTBU8IEVQRD--z6I5XX4sxXJy_VqDhXIuats13vXHC3_Ld7xuSsN-54_k3OHYC43ffgYgA2L9LotMOHhtq3kuXJYEZBJzNuAfQRgRna4GlWlKfH1YcCP3FNoEU0gwgIj-4IjdTJkbU-k4ElbS0oztC0W7xWKdWCM7CE6TAeIBMXcrYC4byhs05GBG-O8IwtRSBU5W_R1VG3aVa1RmtpARFqffI_6uQNT6HMnl685etUD6MXCmO2-gJOUfk5fKxF5aCO9mAEazZf2WgwCU_NZ2e5QXVixVDrP6cqHkb210nna9JKALJQnyJnRdQUgSHkwoe5hKVGPD1deM_SG5Fsb9poV5CuqMTbBEY-sdio9hoTs-iCfGYEceaJbDYGkYcKTI6CiAh1kIC3kgFYHh5pI8jexDdbJd7ifeVYa2HkUiBrTZdqsqOo16X_k3TbMRjDKUNbAJtZiG7SgU2SnqTiustv9vYE6X8_mNeevG4z_lTzfRWFkcEGhufKKo_BeRJF9xE9yOKdYz6MGReT2kyqggybhk0WatfTTi0bHZCC2ZasKJLqx8DzamNVSQyX4vBos0IYpbmNjqeVlWB?></g></svg>