<?plantuml 1.2026.2beta3?><svg xmlns="http://www.w3.org/2000/svg" xmlns:xlink="http://www.w3.org/1999/xlink" contentStyleType="text/css" data-diagram-type="SEQUENCE" height="1608px" preserveAspectRatio="none" style="width:1282px;height:1608px;background:#FFFFFF;" version="1.1" viewBox="0 0 1282 1608" width="1282px" zoomAndPan="magnify"><title>DAI &#8212; Sequence Diagram (Per-op&#233;ratoire / Bloc)</title><defs/><g><text fill="#000000" font-family="sans-serif" font-size="14" font-weight="bold" lengthAdjust="spacing" textLength="381.3223" x="446.5459" y="27.9951">DAI &#8212; Sequence Diagram (Per-op&#233;ratoire / Bloc)</text><rect fill="none" height="354.3984" style="stroke:#000000;stroke-width:1.5;" width="1068.1416" x="197.2725" y="367.5234"/><rect fill="none" height="206.7344" style="stroke:#000000;stroke-width:1.5;" width="1048.1416" x="207.2725" y="508.1875"/><rect fill="none" height="191.9297" style="stroke:#000000;stroke-width:1.5;" width="1245.4141" x="10" y="967.8516"/><rect fill="none" height="104.5313" style="stroke:#000000;stroke-width:1.5;" width="1048.1416" x="207.2725" y="1216.9141"/><g class="participant-lifeline" data-entity-uid="part1" data-qualified-name="IADE" id="part1-lifeline"><g><title>IADE</title><rect fill="#000000" fill-opacity="0.00000" height="1408.6484" width="8" x="35.666" y="118.5938"/><line style="stroke:#181818;stroke-width:0.5;stroke-dasharray:5,5;" x1="39" x2="39" y1="118.5938" y2="1527.2422"/></g></g><g class="participant-lifeline" data-entity-uid="part2" data-qualified-name="FE" id="part2-lifeline"><g><title>DAI Frontend .Bloc.</title><rect fill="#000000" fill-opacity="0.00000" height="1408.6484" width="8" x="288.8608" y="118.5938"/><line style="stroke:#181818;stroke-width:0.5;stroke-dasharray:5,5;" x1="292.2725" x2="292.2725" y1="118.5938" y2="1527.2422"/></g></g><g class="participant-lifeline" data-entity-uid="part3" data-qualified-name="BE" id="part3-lifeline"><g><title>DAI Backend API</title><rect fill="#000000" fill-opacity="0.00000" height="1408.6484" width="8" x="597.8643" y="118.5938"/><line style="stroke:#181818;stroke-width:0.5;stroke-dasharray:5,5;" x1="600.916" x2="600.916" y1="118.5938" y2="1527.2422"/></g></g><g class="participant-lifeline" data-entity-uid="part4" data-qualified-name="GW" id="part4-lifeline"><g><title>Device Gateway .PCD.HL7.</title><rect fill="#000000" fill-opacity="0.00000" height="1408.6484" width="8" x="917.6714" y="118.5938"/><line style="stroke:#181818;stroke-width:0.5;stroke-dasharray:5,5;" x1="921.4229" x2="921.4229" y1="118.5938" y2="1527.2422"/></g></g><g class="participant-lifeline" data-entity-uid="part5" data-qualified-name="AE" id="part5-lifeline"><g><title>Alert Engine</title><rect fill="#000000" fill-opacity="0.00000" height="1408.6484" width="8" x="1079.7983" y="118.5938"/><line style="stroke:#181818;stroke-width:0.5;stroke-dasharray:5,5;" x1="1082.9199" x2="1082.9199" y1="118.5938" y2="1527.2422"/></g></g><g class="participant-lifeline" data-entity-uid="part6" data-qualified-name="DB" id="part6-lifeline"><g><title>DAI Database</title><rect fill="#000000" fill-opacity="0.00000" height="1408.6484" width="8" x="1190.5454" y="118.5938"/><line style="stroke:#181818;stroke-width:0.5;stroke-dasharray:5,5;" x1="1193.6768" x2="1193.6768" y1="118.5938" y2="1527.2422"/></g></g><g class="participant participant-head" data-entity-uid="part1" data-qualified-name="IADE" id="part1-head"><text fill="#000000" font-family="sans-serif" font-size="14" lengthAdjust="spacing" textLength="33.332" x="20" y="115.292">IADE</text><ellipse cx="39.666" cy="50.7969" fill="#E2E2F0" rx="8" ry="8" style="stroke:#181818;stroke-width:0.5;"/><path d="M39.666,58.7969 L39.666,85.7969 M26.666,66.7969 L52.666,66.7969 M39.666,85.7969 L26.666,100.7969 M39.666,85.7969 L52.666,100.7969" fill="none" style="stroke:#181818;stroke-width:0.5;"/></g><g class="participant participant-tail" data-entity-uid="part1" data-qualified-name="IADE" id="part1-tail"><text fill="#000000" font-family="sans-serif" font-size="14" lengthAdjust="spacing" textLength="33.332" x="20" y="1539.2373">IADE</text><ellipse cx="39.666" cy="1551.0391" fill="#E2E2F0" rx="8" ry="8" style="stroke:#181818;stroke-width:0.5;"/><path d="M39.666,1559.0391 L39.666,1586.0391 M26.666,1567.0391 L52.666,1567.0391 M39.666,1586.0391 L26.666,1601.0391 M39.666,1586.0391 L52.666,1601.0391" fill="none" style="stroke:#181818;stroke-width:0.5;"/></g><g class="participant participant-head" data-entity-uid="part2" data-qualified-name="FE" id="part2-head"><rect fill="#E2E2F0" height="30.2969" rx="2.5" ry="2.5" style="stroke:#181818;stroke-width:0.5;" width="151.1768" x="217.2725" y="87.2969"/><text fill="#000000" font-family="sans-serif" font-size="14" lengthAdjust="spacing" textLength="137.1768" x="224.2725" y="107.292">DAI Frontend (Bloc)</text></g><g class="participant participant-tail" data-entity-uid="part2" data-qualified-name="FE" id="part2-tail"><rect fill="#E2E2F0" height="30.2969" rx="2.5" ry="2.5" style="stroke:#181818;stroke-width:0.5;" width="151.1768" x="217.2725" y="1526.2422"/><text fill="#000000" font-family="sans-serif" font-size="14" lengthAdjust="spacing" textLength="137.1768" x="224.2725" y="1546.2373">DAI Frontend (Bloc)</text></g><g class="participant participant-head" data-entity-uid="part3" data-qualified-name="BE" id="part3-head"><rect fill="#E2E2F0" height="30.2969" rx="2.5" ry="2.5" style="stroke:#181818;stroke-width:0.5;" width="129.8965" x="536.916" y="87.2969"/><text fill="#000000" font-family="sans-serif" font-size="14" lengthAdjust="spacing" textLength="115.8965" x="543.916" y="107.292">DAI Backend API</text></g><g class="participant participant-tail" data-entity-uid="part3" data-qualified-name="BE" id="part3-tail"><rect fill="#E2E2F0" height="30.2969" rx="2.5" ry="2.5" style="stroke:#181818;stroke-width:0.5;" width="129.8965" x="536.916" y="1526.2422"/><text fill="#000000" font-family="sans-serif" font-size="14" lengthAdjust="spacing" textLength="115.8965" x="543.916" y="1546.2373">DAI Backend API</text></g><g class="participant participant-head" data-entity-uid="part4" data-qualified-name="GW" id="part4-head"><rect fill="#E2E2F0" height="30.2969" rx="2.5" ry="2.5" style="stroke:#181818;stroke-width:0.5;" width="204.4971" x="819.4229" y="87.2969"/><text fill="#000000" font-family="sans-serif" font-size="14" lengthAdjust="spacing" textLength="190.4971" x="826.4229" y="107.292">Device Gateway (PCD/HL7)</text></g><g class="participant participant-tail" data-entity-uid="part4" data-qualified-name="GW" id="part4-tail"><rect fill="#E2E2F0" height="30.2969" rx="2.5" ry="2.5" style="stroke:#181818;stroke-width:0.5;" width="204.4971" x="819.4229" y="1526.2422"/><text fill="#000000" font-family="sans-serif" font-size="14" lengthAdjust="spacing" textLength="190.4971" x="826.4229" y="1546.2373">Device Gateway (PCD/HL7)</text></g><g class="participant participant-head" data-entity-uid="part5" data-qualified-name="AE" id="part5-head"><rect fill="#E2E2F0" height="30.2969" rx="2.5" ry="2.5" style="stroke:#181818;stroke-width:0.5;" width="99.7568" x="1033.9199" y="87.2969"/><text fill="#000000" font-family="sans-serif" font-size="14" lengthAdjust="spacing" textLength="85.7568" x="1040.9199" y="107.292">Alert Engine</text></g><g class="participant participant-tail" data-entity-uid="part5" data-qualified-name="AE" id="part5-tail"><rect fill="#E2E2F0" height="30.2969" rx="2.5" ry="2.5" style="stroke:#181818;stroke-width:0.5;" width="99.7568" x="1033.9199" y="1526.2422"/><text fill="#000000" font-family="sans-serif" font-size="14" lengthAdjust="spacing" textLength="85.7568" x="1040.9199" y="1546.2373">Alert Engine</text></g><g class="participant participant-head" data-entity-uid="part6" data-qualified-name="DB" id="part6-head"><text fill="#000000" font-family="sans-serif" font-size="14" lengthAdjust="spacing" textLength="95.7373" x="1143.6768" y="115.292">DAI Database</text><path d="M1176.5454,66.2969 C1176.5454,56.2969 1194.5454,56.2969 1194.5454,56.2969 C1194.5454,56.2969 1212.5454,56.2969 1212.5454,66.2969 L1212.5454,92.2969 C1212.5454,102.2969 1194.5454,102.2969 1194.5454,102.2969 C1194.5454,102.2969 1176.5454,102.2969 1176.5454,92.2969 L1176.5454,66.2969" fill="#E2E2F0" style="stroke:#181818;stroke-width:0.5;"/><path d="M1176.5454,66.2969 C1176.5454,76.2969 1194.5454,76.2969 1194.5454,76.2969 C1194.5454,76.2969 1212.5454,76.2969 1212.5454,66.2969" fill="none" style="stroke:#181818;stroke-width:0.5;"/></g><g class="participant participant-tail" data-entity-uid="part6" data-qualified-name="DB" id="part6-tail"><text fill="#000000" font-family="sans-serif" font-size="14" lengthAdjust="spacing" textLength="95.7373" x="1143.6768" y="1539.2373">DAI Database</text><path d="M1176.5454,1552.5391 C1176.5454,1542.5391 1194.5454,1542.5391 1194.5454,1542.5391 C1194.5454,1542.5391 1212.5454,1542.5391 1212.5454,1552.5391 L1212.5454,1578.5391 C1212.5454,1588.5391 1194.5454,1588.5391 1194.5454,1588.5391 C1194.5454,1588.5391 1176.5454,1588.5391 1176.5454,1578.5391 L1176.5454,1552.5391" fill="#E2E2F0" style="stroke:#181818;stroke-width:0.5;"/><path d="M1176.5454,1552.5391 C1176.5454,1562.5391 1194.5454,1562.5391 1194.5454,1562.5391 C1194.5454,1562.5391 1212.5454,1562.5391 1212.5454,1552.5391" fill="none" style="stroke:#181818;stroke-width:0.5;"/></g><rect fill="#EEEEEE" height="3" style="stroke:#EEEEEE;stroke-width:1;" width="1275.4141" x="0" y="149.1602"/><line style="stroke:#000000;stroke-width:1;" x1="0" x2="1275.4141" y1="149.1602" y2="149.1602"/><line style="stroke:#000000;stroke-width:1;" x1="0" x2="1275.4141" y1="152.1602" y2="152.1602"/><rect fill="#EEEEEE" height="23.1328" style="stroke:#000000;stroke-width:2;" width="194.8955" x="540.2593" y="138.5938"/><text fill="#000000" font-family="sans-serif" font-size="13" font-weight="bold" lengthAdjust="spacing" textLength="176.3696" x="546.2593" y="154.6606">D&#233;marrage session Bloc</text><g class="message" data-entity-1="part1" data-entity-2="part2" id="msg1"><polygon fill="#181818" points="280.8608,188.8594,290.8608,192.8594,280.8608,196.8594,284.8608,192.8594" style="stroke:#181818;stroke-width:1;"/><line style="stroke:#181818;stroke-width:1;" x1="39.666" x2="286.8608" y1="192.8594" y2="192.8594"/><text fill="#000000" font-family="sans-serif" font-size="13" lengthAdjust="spacing" textLength="201.4937" x="46.666" y="187.7935">Ouvrir &#233;cran per-op (patient X)</text></g><g class="message" data-entity-1="part2" data-entity-2="part3" id="msg2"><polygon fill="#181818" points="589.8643,217.9922,599.8643,221.9922,589.8643,225.9922,593.8643,221.9922" style="stroke:#181818;stroke-width:1;"/><line style="stroke:#181818;stroke-width:1;" x1="292.8608" x2="595.8643" y1="221.9922" y2="221.9922"/><text fill="#000000" font-family="sans-serif" font-size="13" lengthAdjust="spacing" textLength="189.5156" x="299.8608" y="216.9263">StartPerOpSession(patientId)</text></g><g class="message" data-entity-1="part3" data-entity-2="part6" id="msg3"><polygon fill="#181818" points="1182.5454,247.125,1192.5454,251.125,1182.5454,255.125,1186.5454,251.125" style="stroke:#181818;stroke-width:1;"/><line style="stroke:#181818;stroke-width:1;" x1="601.8643" x2="1188.5454" y1="251.125" y2="251.125"/><text fill="#000000" font-family="sans-serif" font-size="13" lengthAdjust="spacing" textLength="172.1611" x="608.8643" y="246.0591">LoadActiveCase(patientId)</text></g><g class="message" data-entity-1="part6" data-entity-2="part3" id="msg4"><polygon fill="#181818" points="612.8643,276.2578,602.8643,280.2578,612.8643,284.2578,608.8643,280.2578" style="stroke:#181818;stroke-width:1;"/><line style="stroke:#181818;stroke-width:1;stroke-dasharray:2,2;" x1="606.8643" x2="1193.5454" y1="280.2578" y2="280.2578"/><text fill="#000000" font-family="sans-serif" font-size="13" lengthAdjust="spacing" textLength="247.2349" x="618.8643" y="275.1919">Case + param&#232;tres (seuils, protocole)</text></g><g class="message" data-entity-1="part3" data-entity-2="part2" id="msg5"><polygon fill="#181818" points="303.8608,305.3906,293.8608,309.3906,303.8608,313.3906,299.8608,309.3906" style="stroke:#181818;stroke-width:1;"/><line style="stroke:#181818;stroke-width:1;stroke-dasharray:2,2;" x1="297.8608" x2="600.8643" y1="309.3906" y2="309.3906"/><text fill="#000000" font-family="sans-serif" font-size="13" lengthAdjust="spacing" textLength="181.7271" x="309.8608" y="304.3247">SessionReady(caseContext)</text></g><rect fill="#EEEEEE" height="3" style="stroke:#EEEEEE;stroke-width:1;" width="1275.4141" x="0" y="337.957"/><line style="stroke:#000000;stroke-width:1;" x1="0" x2="1275.4141" y1="337.957" y2="337.957"/><line style="stroke:#000000;stroke-width:1;" x1="0" x2="1275.4141" y1="340.957" y2="340.957"/><rect fill="#EEEEEE" height="23.1328" style="stroke:#000000;stroke-width:2;" width="229.7251" x="522.8445" y="327.3906"/><text fill="#000000" font-family="sans-serif" font-size="13" font-weight="bold" lengthAdjust="spacing" textLength="211.1992" x="528.8445" y="343.4575">Flux constantes (temps r&#233;el)</text><path d="M197.2725,367.5234 L273.8965,367.5234 L273.8965,374.6563 L263.8965,384.6563 L197.2725,384.6563 L197.2725,367.5234" fill="#EEEEEE" style="stroke:#000000;stroke-width:1.5;"/><rect fill="none" height="354.3984" style="stroke:#000000;stroke-width:1.5;" width="1068.1416" x="197.2725" y="367.5234"/><text fill="#000000" font-family="sans-serif" font-size="13" font-weight="bold" lengthAdjust="spacing" textLength="31.624" x="212.2725" y="380.5903">loop</text><text fill="#000000" font-family="sans-serif" font-size="11" font-weight="bold" lengthAdjust="spacing" textLength="205.2188" x="288.8965" y="379.7339">[Toutes les X secondes (stream)]</text><g class="message" data-entity-1="part4" data-entity-2="part3" id="msg6"><polygon fill="#181818" points="612.8643,401.7891,602.8643,405.7891,612.8643,409.7891,608.8643,405.7891" style="stroke:#181818;stroke-width:1;"/><line style="stroke:#181818;stroke-width:1;" x1="606.8643" x2="920.6714" y1="405.7891" y2="405.7891"/><text fill="#000000" font-family="sans-serif" font-size="13" lengthAdjust="spacing" textLength="295.8071" x="618.8643" y="400.7231">VitalSigns(patientId, FC, TA, SpO2, EtCO2, ...)</text></g><g class="message" data-entity-1="part3" data-entity-2="part6" id="msg7"><polygon fill="#181818" points="1182.5454,430.9219,1192.5454,434.9219,1182.5454,438.9219,1186.5454,434.9219" style="stroke:#181818;stroke-width:1;"/><line style="stroke:#181818;stroke-width:1;" x1="601.8643" x2="1188.5454" y1="434.9219" y2="434.9219"/><text fill="#000000" font-family="sans-serif" font-size="13" lengthAdjust="spacing" textLength="157.9233" x="608.8643" y="429.856">SaveVitals(time, values)</text></g><g class="message" data-entity-1="part6" data-entity-2="part3" id="msg8"><polygon fill="#181818" points="612.8643,460.0547,602.8643,464.0547,612.8643,468.0547,608.8643,464.0547" style="stroke:#181818;stroke-width:1;"/><line style="stroke:#181818;stroke-width:1;stroke-dasharray:2,2;" x1="606.8643" x2="1193.5454" y1="464.0547" y2="464.0547"/><text fill="#000000" font-family="sans-serif" font-size="13" lengthAdjust="spacing" textLength="18.7573" x="618.8643" y="458.9888">OK</text></g><g class="message" data-entity-1="part3" data-entity-2="part5" id="msg9"><polygon fill="#181818" points="1071.7983,489.1875,1081.7983,493.1875,1071.7983,497.1875,1075.7983,493.1875" style="stroke:#181818;stroke-width:1;"/><line style="stroke:#181818;stroke-width:1;" x1="601.8643" x2="1077.7983" y1="493.1875" y2="493.1875"/><text fill="#000000" font-family="sans-serif" font-size="13" lengthAdjust="spacing" textLength="221.4126" x="608.8643" y="488.1216">EvaluateRules(values, thresholds)</text></g><path d="M207.2725,508.1875 L271.7153,508.1875 L271.7153,515.3203 L261.7153,525.3203 L207.2725,525.3203 L207.2725,508.1875" fill="#EEEEEE" style="stroke:#000000;stroke-width:1.5;"/><rect fill="none" height="206.7344" style="stroke:#000000;stroke-width:1.5;" width="1048.1416" x="207.2725" y="508.1875"/><text fill="#000000" font-family="sans-serif" font-size="13" font-weight="bold" lengthAdjust="spacing" textLength="19.4429" x="222.2725" y="521.2544">alt</text><text fill="#000000" font-family="sans-serif" font-size="11" font-weight="bold" lengthAdjust="spacing" textLength="126.4248" x="286.7153" y="520.3979">[Anomalie d&#233;tect&#233;e]</text><g class="message" data-entity-1="part5" data-entity-2="part3" id="msg10"><polygon fill="#181818" points="612.8643,542.4531,602.8643,546.4531,612.8643,550.4531,608.8643,546.4531" style="stroke:#181818;stroke-width:1;"/><line style="stroke:#181818;stroke-width:1;stroke-dasharray:2,2;" x1="606.8643" x2="1082.7983" y1="546.4531" y2="546.4531"/><text fill="#000000" font-family="sans-serif" font-size="13" lengthAdjust="spacing" textLength="226.7764" x="618.8643" y="541.3872">AlertRaised(type, severity, reason)</text></g><g class="message" data-entity-1="part3" data-entity-2="part6" id="msg11"><polygon fill="#181818" points="1182.5454,571.5859,1192.5454,575.5859,1182.5454,579.5859,1186.5454,575.5859" style="stroke:#181818;stroke-width:1;"/><line style="stroke:#181818;stroke-width:1;" x1="601.8643" x2="1188.5454" y1="575.5859" y2="575.5859"/><text fill="#000000" font-family="sans-serif" font-size="13" lengthAdjust="spacing" textLength="182.6475" x="608.8643" y="570.52">SaveAlert(status="ACTIVE")</text></g><g class="message" data-entity-1="part6" data-entity-2="part3" id="msg12"><polygon fill="#181818" points="612.8643,600.7188,602.8643,604.7188,612.8643,608.7188,608.8643,604.7188" style="stroke:#181818;stroke-width:1;"/><line style="stroke:#181818;stroke-width:1;stroke-dasharray:2,2;" x1="606.8643" x2="1193.5454" y1="604.7188" y2="604.7188"/><text fill="#000000" font-family="sans-serif" font-size="13" lengthAdjust="spacing" textLength="18.7573" x="618.8643" y="599.6528">OK</text></g><g class="message" data-entity-1="part3" data-entity-2="part2" id="msg13"><polygon fill="#181818" points="303.8608,629.8516,293.8608,633.8516,303.8608,637.8516,299.8608,633.8516" style="stroke:#181818;stroke-width:1;"/><line style="stroke:#181818;stroke-width:1;stroke-dasharray:2,2;" x1="297.8608" x2="600.8643" y1="633.8516" y2="633.8516"/><text fill="#000000" font-family="sans-serif" font-size="13" lengthAdjust="spacing" textLength="172.2437" x="309.8608" y="628.7856">PushUpdate(vitals + alert)</text></g><line style="stroke:#000000;stroke-width:1;stroke-dasharray:2,2;" x1="207.2725" x2="1255.4141" y1="642.8516" y2="642.8516"/><text fill="#000000" font-family="sans-serif" font-size="11" font-weight="bold" lengthAdjust="spacing" textLength="54.8979" x="212.2725" y="653.062">[Normal]</text><g class="message" data-entity-1="part5" data-entity-2="part3" id="msg14"><polygon fill="#181818" points="612.8643,673.7891,602.8643,677.7891,612.8643,681.7891,608.8643,677.7891" style="stroke:#181818;stroke-width:1;"/><line style="stroke:#181818;stroke-width:1;stroke-dasharray:2,2;" x1="606.8643" x2="1082.7983" y1="677.7891" y2="677.7891"/><text fill="#000000" font-family="sans-serif" font-size="13" lengthAdjust="spacing" textLength="48.623" x="618.8643" y="672.7231">NoAlert</text></g><g class="message" data-entity-1="part3" data-entity-2="part2" id="msg15"><polygon fill="#181818" points="303.8608,702.9219,293.8608,706.9219,303.8608,710.9219,299.8608,706.9219" style="stroke:#181818;stroke-width:1;"/><line style="stroke:#181818;stroke-width:1;stroke-dasharray:2,2;" x1="297.8608" x2="600.8643" y1="706.9219" y2="706.9219"/><text fill="#000000" font-family="sans-serif" font-size="13" lengthAdjust="spacing" textLength="123.0684" x="309.8608" y="701.856">PushUpdate(vitals)</text></g><rect fill="#EEEEEE" height="3" style="stroke:#EEEEEE;stroke-width:1;" width="1275.4141" x="0" y="749.4883"/><line style="stroke:#000000;stroke-width:1;" x1="0" x2="1275.4141" y1="749.4883" y2="749.4883"/><line style="stroke:#000000;stroke-width:1;" x1="0" x2="1275.4141" y1="752.4883" y2="752.4883"/><rect fill="#EEEEEE" height="23.1328" style="stroke:#000000;stroke-width:2;" width="370.2876" x="452.5632" y="738.9219"/><text fill="#000000" font-family="sans-serif" font-size="13" font-weight="bold" lengthAdjust="spacing" textLength="351.7617" x="458.5632" y="754.9888">&#201;v&#233;nements manuels (m&#233;dicaments / incidents)</text><g class="message" data-entity-1="part1" data-entity-2="part2" id="msg16"><polygon fill="#181818" points="280.8608,789.1875,290.8608,793.1875,280.8608,797.1875,284.8608,793.1875" style="stroke:#181818;stroke-width:1;"/><line style="stroke:#181818;stroke-width:1;" x1="39.666" x2="286.8608" y1="793.1875" y2="793.1875"/><text fill="#000000" font-family="sans-serif" font-size="13" lengthAdjust="spacing" textLength="212.6655" x="46.666" y="788.1216">Saisir m&#233;dicament (dose, heure)</text></g><g class="message" data-entity-1="part2" data-entity-2="part3" id="msg17"><polygon fill="#181818" points="589.8643,818.3203,599.8643,822.3203,589.8643,826.3203,593.8643,822.3203" style="stroke:#181818;stroke-width:1;"/><line style="stroke:#181818;stroke-width:1;" x1="292.8608" x2="595.8643" y1="822.3203" y2="822.3203"/><text fill="#000000" font-family="sans-serif" font-size="13" lengthAdjust="spacing" textLength="165.6548" x="299.8608" y="817.2544">RecordEvent(medication)</text></g><g class="message" data-entity-1="part3" data-entity-2="part6" id="msg18"><polygon fill="#181818" points="1182.5454,847.4531,1192.5454,851.4531,1182.5454,855.4531,1186.5454,851.4531" style="stroke:#181818;stroke-width:1;"/><line style="stroke:#181818;stroke-width:1;" x1="601.8643" x2="1188.5454" y1="851.4531" y2="851.4531"/><text fill="#000000" font-family="sans-serif" font-size="13" lengthAdjust="spacing" textLength="151.8359" x="608.8643" y="846.3872">SaveEvent(medication)</text></g><g class="message" data-entity-1="part6" data-entity-2="part3" id="msg19"><polygon fill="#181818" points="612.8643,876.5859,602.8643,880.5859,612.8643,884.5859,608.8643,880.5859" style="stroke:#181818;stroke-width:1;"/><line style="stroke:#181818;stroke-width:1;stroke-dasharray:2,2;" x1="606.8643" x2="1193.5454" y1="880.5859" y2="880.5859"/><text fill="#000000" font-family="sans-serif" font-size="13" lengthAdjust="spacing" textLength="18.7573" x="618.8643" y="875.52">OK</text></g><g class="message" data-entity-1="part3" data-entity-2="part2" id="msg20"><polygon fill="#181818" points="303.8608,905.7188,293.8608,909.7188,303.8608,913.7188,299.8608,909.7188" style="stroke:#181818;stroke-width:1;"/><line style="stroke:#181818;stroke-width:1;stroke-dasharray:2,2;" x1="297.8608" x2="600.8643" y1="909.7188" y2="909.7188"/><text fill="#000000" font-family="sans-serif" font-size="13" lengthAdjust="spacing" textLength="99.2202" x="309.8608" y="904.6528">EventRecorded</text></g><rect fill="#EEEEEE" height="3" style="stroke:#EEEEEE;stroke-width:1;" width="1275.4141" x="0" y="938.2852"/><line style="stroke:#000000;stroke-width:1;" x1="0" x2="1275.4141" y1="938.2852" y2="938.2852"/><line style="stroke:#000000;stroke-width:1;" x1="0" x2="1275.4141" y1="941.2852" y2="941.2852"/><rect fill="#EEEEEE" height="23.1328" style="stroke:#000000;stroke-width:2;" width="122.6211" x="576.3965" y="927.7188"/><text fill="#000000" font-family="sans-serif" font-size="13" font-weight="bold" lengthAdjust="spacing" textLength="104.0952" x="582.3965" y="943.7856">Gestion alerte</text><path d="M10,967.8516 L74.4429,967.8516 L74.4429,974.9844 L64.4429,984.9844 L10,984.9844 L10,967.8516" fill="#EEEEEE" style="stroke:#000000;stroke-width:1.5;"/><rect fill="none" height="191.9297" style="stroke:#000000;stroke-width:1.5;" width="1245.4141" x="10" y="967.8516"/><text fill="#000000" font-family="sans-serif" font-size="13" font-weight="bold" lengthAdjust="spacing" textLength="19.4429" x="25" y="980.9185">alt</text><text fill="#000000" font-family="sans-serif" font-size="11" font-weight="bold" lengthAdjust="spacing" textLength="101.8091" x="89.4429" y="980.062">[Alerte affich&#233;e]</text><g class="message" data-entity-1="part2" data-entity-2="part1" id="msg21"><polygon fill="#181818" points="50.666,1002.1172,40.666,1006.1172,50.666,1010.1172,46.666,1006.1172" style="stroke:#181818;stroke-width:1;"/><line style="stroke:#181818;stroke-width:1;stroke-dasharray:2,2;" x1="44.666" x2="291.8608" y1="1006.1172" y2="1006.1172"/><text fill="#000000" font-family="sans-serif" font-size="13" lengthAdjust="spacing" textLength="229.1948" x="56.666" y="1001.0513">Notification alerte (visuelle/sonore)</text></g><g class="message" data-entity-1="part1" data-entity-2="part2" id="msg22"><polygon fill="#181818" points="280.8608,1031.25,290.8608,1035.25,280.8608,1039.25,284.8608,1035.25" style="stroke:#181818;stroke-width:1;"/><line style="stroke:#181818;stroke-width:1;" x1="39.666" x2="286.8608" y1="1035.25" y2="1035.25"/><text fill="#000000" font-family="sans-serif" font-size="13" lengthAdjust="spacing" textLength="147.4307" x="46.666" y="1030.1841">Acquitter / commenter</text></g><g class="message" data-entity-1="part2" data-entity-2="part3" id="msg23"><polygon fill="#181818" points="589.8643,1060.3828,599.8643,1064.3828,589.8643,1068.3828,593.8643,1064.3828" style="stroke:#181818;stroke-width:1;"/><line style="stroke:#181818;stroke-width:1;" x1="292.8608" x2="595.8643" y1="1064.3828" y2="1064.3828"/><text fill="#000000" font-family="sans-serif" font-size="13" lengthAdjust="spacing" textLength="239.7256" x="299.8608" y="1059.3169">AcknowledgeAlert(alertId, comment)</text></g><g class="message" data-entity-1="part3" data-entity-2="part6" id="msg24"><polygon fill="#181818" points="1182.5454,1089.5156,1192.5454,1093.5156,1182.5454,1097.5156,1186.5454,1093.5156" style="stroke:#181818;stroke-width:1;"/><line style="stroke:#181818;stroke-width:1;" x1="601.8643" x2="1188.5454" y1="1093.5156" y2="1093.5156"/><text fill="#000000" font-family="sans-serif" font-size="13" lengthAdjust="spacing" textLength="251.7163" x="608.8643" y="1088.4497">UpdateAlert(status="ACK", user, time)</text></g><g class="message" data-entity-1="part6" data-entity-2="part3" id="msg25"><polygon fill="#181818" points="612.8643,1118.6484,602.8643,1122.6484,612.8643,1126.6484,608.8643,1122.6484" style="stroke:#181818;stroke-width:1;"/><line style="stroke:#181818;stroke-width:1;stroke-dasharray:2,2;" x1="606.8643" x2="1193.5454" y1="1122.6484" y2="1122.6484"/><text fill="#000000" font-family="sans-serif" font-size="13" lengthAdjust="spacing" textLength="18.7573" x="618.8643" y="1117.5825">OK</text></g><g class="message" data-entity-1="part3" data-entity-2="part2" id="msg26"><polygon fill="#181818" points="303.8608,1147.7813,293.8608,1151.7813,303.8608,1155.7813,299.8608,1151.7813" style="stroke:#181818;stroke-width:1;"/><line style="stroke:#181818;stroke-width:1;stroke-dasharray:2,2;" x1="297.8608" x2="600.8643" y1="1151.7813" y2="1151.7813"/><text fill="#000000" font-family="sans-serif" font-size="13" lengthAdjust="spacing" textLength="125.7026" x="309.8608" y="1146.7153">AlertAcknowledged</text></g><rect fill="#EEEEEE" height="3" style="stroke:#EEEEEE;stroke-width:1;" width="1275.4141" x="0" y="1187.3477"/><line style="stroke:#000000;stroke-width:1;" x1="0" x2="1275.4141" y1="1187.3477" y2="1187.3477"/><line style="stroke:#000000;stroke-width:1;" x1="0" x2="1275.4141" y1="1190.3477" y2="1190.3477"/><rect fill="#EEEEEE" height="23.1328" style="stroke:#000000;stroke-width:2;" width="285.4194" x="494.9973" y="1176.7813"/><text fill="#000000" font-family="sans-serif" font-size="13" font-weight="bold" lengthAdjust="spacing" textLength="266.8936" x="500.9973" y="1192.8481">R&#233;silience (perte r&#233;seau / dispositif)</text><path d="M207.2725,1216.9141 L271.7153,1216.9141 L271.7153,1224.0469 L261.7153,1234.0469 L207.2725,1234.0469 L207.2725,1216.9141" fill="#EEEEEE" style="stroke:#000000;stroke-width:1.5;"/><rect fill="none" height="104.5313" style="stroke:#000000;stroke-width:1.5;" width="1048.1416" x="207.2725" y="1216.9141"/><text fill="#000000" font-family="sans-serif" font-size="13" font-weight="bold" lengthAdjust="spacing" textLength="19.4429" x="222.2725" y="1229.981">alt</text><text fill="#000000" font-family="sans-serif" font-size="11" font-weight="bold" lengthAdjust="spacing" textLength="158.3291" x="286.7153" y="1229.1245">[Perte de flux dispositifs]</text><g class="message" data-entity-1="part4" data-entity-2="part3" id="msg27"><polygon fill="#181818" points="612.8643,1251.1797,602.8643,1255.1797,612.8643,1259.1797,608.8643,1255.1797" style="stroke:#181818;stroke-width:1;"/><line style="stroke:#181818;stroke-width:1;" x1="606.8643" x2="920.6714" y1="1255.1797" y2="1255.1797"/><text fill="#000000" font-family="sans-serif" font-size="13" lengthAdjust="spacing" textLength="132.9263" x="618.8643" y="1250.1138">DeviceDisconnected</text></g><g class="message" data-entity-1="part3" data-entity-2="part6" id="msg28"><polygon fill="#181818" points="1182.5454,1280.3125,1192.5454,1284.3125,1182.5454,1288.3125,1186.5454,1284.3125" style="stroke:#181818;stroke-width:1;"/><line style="stroke:#181818;stroke-width:1;" x1="601.8643" x2="1188.5454" y1="1284.3125" y2="1284.3125"/><text fill="#000000" font-family="sans-serif" font-size="13" lengthAdjust="spacing" textLength="286.0825" x="608.8643" y="1279.2466">SaveTechnicalEvent("DeviceDisconnected")</text></g><g class="message" data-entity-1="part3" data-entity-2="part2" id="msg29"><polygon fill="#181818" points="303.8608,1309.4453,293.8608,1313.4453,303.8608,1317.4453,299.8608,1313.4453" style="stroke:#181818;stroke-width:1;"/><line style="stroke:#181818;stroke-width:1;stroke-dasharray:2,2;" x1="297.8608" x2="600.8643" y1="1313.4453" y2="1313.4453"/><text fill="#000000" font-family="sans-serif" font-size="13" lengthAdjust="spacing" textLength="285.0034" x="309.8608" y="1308.3794">ShowWarning("Flux dispositifs interrompu")</text></g><rect fill="#EEEEEE" height="3" style="stroke:#EEEEEE;stroke-width:1;" width="1275.4141" x="0" y="1349.0117"/><line style="stroke:#000000;stroke-width:1;" x1="0" x2="1275.4141" y1="1349.0117" y2="1349.0117"/><line style="stroke:#000000;stroke-width:1;" x1="0" x2="1275.4141" y1="1352.0117" y2="1352.0117"/><rect fill="#EEEEEE" height="23.1328" style="stroke:#000000;stroke-width:2;" width="76.042" x="599.686" y="1338.4453"/><text fill="#000000" font-family="sans-serif" font-size="13" font-weight="bold" lengthAdjust="spacing" textLength="57.5161" x="605.686" y="1354.5122">Fin bloc</text><g class="message" data-entity-1="part1" data-entity-2="part2" id="msg30"><polygon fill="#181818" points="280.8608,1388.7109,290.8608,1392.7109,280.8608,1396.7109,284.8608,1392.7109" style="stroke:#181818;stroke-width:1;"/><line style="stroke:#181818;stroke-width:1;" x1="39.666" x2="286.8608" y1="1392.7109" y2="1392.7109"/><text fill="#000000" font-family="sans-serif" font-size="13" lengthAdjust="spacing" textLength="158.0186" x="46.666" y="1387.645">Terminer session per-op</text></g><g class="message" data-entity-1="part2" data-entity-2="part3" id="msg31"><polygon fill="#181818" points="589.8643,1417.8438,599.8643,1421.8438,589.8643,1425.8438,593.8643,1421.8438" style="stroke:#181818;stroke-width:1;"/><line style="stroke:#181818;stroke-width:1;" x1="292.8608" x2="595.8643" y1="1421.8438" y2="1421.8438"/><text fill="#000000" font-family="sans-serif" font-size="13" lengthAdjust="spacing" textLength="166.0864" x="299.8608" y="1416.7778">EndPerOpSession(caseId)</text></g><g class="message" data-entity-1="part3" data-entity-2="part6" id="msg32"><polygon fill="#181818" points="1182.5454,1446.9766,1192.5454,1450.9766,1182.5454,1454.9766,1186.5454,1450.9766" style="stroke:#181818;stroke-width:1;"/><line style="stroke:#181818;stroke-width:1;" x1="601.8643" x2="1188.5454" y1="1450.9766" y2="1450.9766"/><text fill="#000000" font-family="sans-serif" font-size="13" lengthAdjust="spacing" textLength="190.9883" x="608.8643" y="1445.9106">CloseCaseSegment("PEROP")</text></g><g class="message" data-entity-1="part6" data-entity-2="part3" id="msg33"><polygon fill="#181818" points="612.8643,1476.1094,602.8643,1480.1094,612.8643,1484.1094,608.8643,1480.1094" style="stroke:#181818;stroke-width:1;"/><line style="stroke:#181818;stroke-width:1;stroke-dasharray:2,2;" x1="606.8643" x2="1193.5454" y1="1480.1094" y2="1480.1094"/><text fill="#000000" font-family="sans-serif" font-size="13" lengthAdjust="spacing" textLength="18.7573" x="618.8643" y="1475.0435">OK</text></g><g class="message" data-entity-1="part3" data-entity-2="part2" id="msg34"><polygon fill="#181818" points="303.8608,1505.2422,293.8608,1509.2422,303.8608,1513.2422,299.8608,1509.2422" style="stroke:#181818;stroke-width:1;"/><line style="stroke:#181818;stroke-width:1;stroke-dasharray:2,2;" x1="297.8608" x2="600.8643" y1="1509.2422" y2="1509.2422"/><text fill="#000000" font-family="sans-serif" font-size="13" lengthAdjust="spacing" textLength="93.2661" x="309.8608" y="1504.1763">SessionClosed</text></g><?plantuml-src XLLBZjiu4Dth50Mj98ow6yWcm00UGBRb7YD1R5ZEPyk8rJOHYbH8IftUpNRsSuZu7Bf9JZ95okwsvSRCmh0bldgiz-fZ9vn4cETB-FNNFr3YznPLHIy4snbMGx96SwER_c2Oqy8WtC5KwYgD8bOvRM2PpukeOSQ9IZHCEOWzrS9evL1nI08u1cPXyGfkogfl7fQlbm4p7MEm4vJCFNFuo9uecTdyxi_tRmV2-y-Nu5oYSL2edL0O07aHSUROLsPnk6v-V0gdysaKJIOmxmyrCuRj42nQAxGA0c4oYRmskFc3CeVVOTLsHXZe3vLX2fhW2YGDSmBfyYzfj0ZOgSUMZl8YurPDEL2US4kUHjE0cqy9zrupdbTET3YZhCv1T7npOlDdy1kGLbRtFvr12ud5LaYRGMEqqvMMEF2UaZrUkq76dvAAucU-7ZzS6YGlPFi3Agsi8zyycyEwiM3w0yhK2vUQj6rrwmybVRwGDOJduMPAWDLf1EJ_i-1FmZ5PYfsoBo8oMCmosEOPbCtgJGQ5c_clszjR7tpcGiaw30GsSQB633ecMxGUTMx3wbtq79Vx5uN7KMTiMien6O8oS7ioQAyb3mHCEiYLhfaK2Bm_EAmSoQGJy2JFvA5tDanOv8bxQYW9YnqQuPuo8BrMgpJ4ZD8EOMG9SwsTnFbik_nKn0DobFef-5IXTMlt7njgJqowe9qgp3oRZqP95V-W3QLzbUa77IxzVy90f7ZaFxxg_TzTVr1OKt4ir4orT0iaTN_WecB3spiGgXBS_qwl1g0aTsW0pW8WuTgILNji3LuCm8RQnV2Y8r1IeySxuIqSsNSD6BbsBZ201s8S5DsZzL63R-WJ3kKUdjZ3WwZsGwqN0qsGunrquk5uuocMFBDaYCGxAhNsQW0krEVLzrOuXuPCgdJjvQCvKfzwgFgczAD4lZlsHU3sWt0C6FNzKArn2xsBCsWj6kfa6ePNXk2ox27yxEQNUc_wWnNKzdwR9qrGIHDkaRKaWGlRQ2l8YFJaspf0ECA3Nmyl07ivwiDAdWjB2q7HDD6DLsEnnMglo64v53Y-ZedJaOvohny_CwE4sYNnOfG1jIMvRNJTj1Hu4hWG2hw-jggtQ6hw3p3F2ttOrkSDMYX-iP_zZXmjvvcavlQxjyHT7MIiYyrg7VzdanxvGYp_5m00?></g></svg>