<?plantuml 1.2026.2beta3?><svg xmlns="http://www.w3.org/2000/svg" xmlns:xlink="http://www.w3.org/1999/xlink" contentStyleType="text/css" data-diagram-type="SEQUENCE" height="1017px" preserveAspectRatio="none" style="width:1187px;height:1017px;background:#FFFFFF;" version="1.1" viewBox="0 0 1187 1017" width="1187px" zoomAndPan="magnify"><title>DAI &#8212; Sequence Diagram (Pr&#233;-op&#233;ratoire)</title><defs/><g><text fill="#000000" font-family="sans-serif" font-size="14" font-weight="bold" lengthAdjust="spacing" textLength="333.0742" x="423.0444" y="27.9951">DAI &#8212; Sequence Diagram (Pr&#233;-op&#233;ratoire)</text><g class="participant-lifeline" data-entity-uid="part1" data-qualified-name="Patient" id="part1-lifeline"><g><title>Patient</title><rect fill="#000000" fill-opacity="0.00000" height="818.3203" width="8" x="28.688" y="118.5938"/><line style="stroke:#181818;stroke-width:0.5;stroke-dasharray:5,5;" x1="32" x2="32" y1="118.5938" y2="936.9141"/></g></g><g class="participant-lifeline" data-entity-uid="part2" data-qualified-name="FE" id="part2-lifeline"><g><title>DAI Frontend</title><rect fill="#000000" fill-opacity="0.00000" height="818.3203" width="8" x="265.8867" y="118.5938"/><line style="stroke:#181818;stroke-width:0.5;stroke-dasharray:5,5;" x1="269.8638" x2="269.8638" y1="118.5938" y2="936.9141"/></g></g><g class="participant-lifeline" data-entity-uid="part3" data-qualified-name="BE" id="part3-lifeline"><g><title>DAI Backend API</title><rect fill="#000000" fill-opacity="0.00000" height="818.3203" width="8" x="461.0068" y="118.5938"/><line style="stroke:#181818;stroke-width:0.5;stroke-dasharray:5,5;" x1="464.0586" x2="464.0586" y1="118.5938" y2="936.9141"/></g></g><g class="participant-lifeline" data-entity-uid="part4" data-qualified-name="AI" id="part4-lifeline"><g><title>AI Module .Scoring.</title><rect fill="#000000" fill-opacity="0.00000" height="818.3203" width="8" x="785.5049" y="118.5938"/><line style="stroke:#181818;stroke-width:0.5;stroke-dasharray:5,5;" x1="789.0088" x2="789.0088" y1="118.5938" y2="936.9141"/></g></g><g class="participant-lifeline" data-entity-uid="part5" data-qualified-name="DB" id="part5-lifeline"><g><title>DAI Database</title><rect fill="#000000" fill-opacity="0.00000" height="818.3203" width="8" x="921.8696" y="118.5938"/><line style="stroke:#181818;stroke-width:0.5;stroke-dasharray:5,5;" x1="925.001" x2="925.001" y1="118.5938" y2="936.9141"/></g></g><g class="participant-lifeline" data-entity-uid="part6" data-qualified-name="SIH" id="part6-lifeline"><g><title>SIH . DPI</title><rect fill="#000000" fill-opacity="0.00000" height="818.3203" width="8" x="1019.9941" y="118.5938"/><line style="stroke:#181818;stroke-width:0.5;stroke-dasharray:5,5;" x1="1023.7383" x2="1023.7383" y1="118.5938" y2="936.9141"/></g></g><g class="participant-lifeline" data-entity-uid="part7" data-qualified-name="Anesthesiste" id="part7-lifeline"><g><title>Anesthesiste</title><rect fill="#000000" fill-opacity="0.00000" height="818.3203" width="8" x="1119.2065" y="118.5938"/><line style="stroke:#181818;stroke-width:0.5;stroke-dasharray:5,5;" x1="1122.25" x2="1122.25" y1="118.5938" y2="936.9141"/></g></g><g class="participant participant-head" data-entity-uid="part1" data-qualified-name="Patient" id="part1-head"><text fill="#000000" font-family="sans-serif" font-size="14" lengthAdjust="spacing" textLength="49.376" x="5" y="115.292">Patient</text><ellipse cx="32.688" cy="50.7969" fill="#E2E2F0" rx="8" ry="8" style="stroke:#181818;stroke-width:0.5;"/><path d="M32.688,58.7969 L32.688,85.7969 M19.688,66.7969 L45.688,66.7969 M32.688,85.7969 L19.688,100.7969 M32.688,85.7969 L45.688,100.7969" fill="none" style="stroke:#181818;stroke-width:0.5;"/></g><g class="participant participant-tail" data-entity-uid="part1" data-qualified-name="Patient" id="part1-tail"><text fill="#000000" font-family="sans-serif" font-size="14" lengthAdjust="spacing" textLength="49.376" x="5" y="948.9092">Patient</text><ellipse cx="32.688" cy="960.7109" fill="#E2E2F0" rx="8" ry="8" style="stroke:#181818;stroke-width:0.5;"/><path d="M32.688,968.7109 L32.688,995.7109 M19.688,976.7109 L45.688,976.7109 M32.688,995.7109 L19.688,1010.7109 M32.688,995.7109 L45.688,1010.7109" fill="none" style="stroke:#181818;stroke-width:0.5;"/></g><g class="participant participant-head" data-entity-uid="part2" data-qualified-name="FE" id="part2-head"><rect fill="#E2E2F0" height="30.2969" rx="2.5" ry="2.5" style="stroke:#181818;stroke-width:0.5;" width="106.0459" x="216.8638" y="87.2969"/><text fill="#000000" font-family="sans-serif" font-size="14" lengthAdjust="spacing" textLength="92.0459" x="223.8638" y="107.292">DAI Frontend</text></g><g class="participant participant-tail" data-entity-uid="part2" data-qualified-name="FE" id="part2-tail"><rect fill="#E2E2F0" height="30.2969" rx="2.5" ry="2.5" style="stroke:#181818;stroke-width:0.5;" width="106.0459" x="216.8638" y="935.9141"/><text fill="#000000" font-family="sans-serif" font-size="14" lengthAdjust="spacing" textLength="92.0459" x="223.8638" y="955.9092">DAI Frontend</text></g><g class="participant participant-head" data-entity-uid="part3" data-qualified-name="BE" id="part3-head"><rect fill="#E2E2F0" height="30.2969" rx="2.5" ry="2.5" style="stroke:#181818;stroke-width:0.5;" width="129.8965" x="400.0586" y="87.2969"/><text fill="#000000" font-family="sans-serif" font-size="14" lengthAdjust="spacing" textLength="115.8965" x="407.0586" y="107.292">DAI Backend API</text></g><g class="participant participant-tail" data-entity-uid="part3" data-qualified-name="BE" id="part3-tail"><rect fill="#E2E2F0" height="30.2969" rx="2.5" ry="2.5" style="stroke:#181818;stroke-width:0.5;" width="129.8965" x="400.0586" y="935.9141"/><text fill="#000000" font-family="sans-serif" font-size="14" lengthAdjust="spacing" textLength="115.8965" x="407.0586" y="955.9092">DAI Backend API</text></g><g class="participant participant-head" data-entity-uid="part4" data-qualified-name="AI" id="part4-head"><rect fill="#E2E2F0" height="30.2969" rx="2.5" ry="2.5" style="stroke:#181818;stroke-width:0.5;" width="150.9922" x="714.0088" y="87.2969"/><text fill="#000000" font-family="sans-serif" font-size="14" lengthAdjust="spacing" textLength="136.9922" x="721.0088" y="107.292">AI Module (Scoring)</text></g><g class="participant participant-tail" data-entity-uid="part4" data-qualified-name="AI" id="part4-tail"><rect fill="#E2E2F0" height="30.2969" rx="2.5" ry="2.5" style="stroke:#181818;stroke-width:0.5;" width="150.9922" x="714.0088" y="935.9141"/><text fill="#000000" font-family="sans-serif" font-size="14" lengthAdjust="spacing" textLength="136.9922" x="721.0088" y="955.9092">AI Module (Scoring)</text></g><g class="participant participant-head" data-entity-uid="part5" data-qualified-name="DB" id="part5-head"><text fill="#000000" font-family="sans-serif" font-size="14" lengthAdjust="spacing" textLength="95.7373" x="875.001" y="115.292">DAI Database</text><path d="M907.8696,66.2969 C907.8696,56.2969 925.8696,56.2969 925.8696,56.2969 C925.8696,56.2969 943.8696,56.2969 943.8696,66.2969 L943.8696,92.2969 C943.8696,102.2969 925.8696,102.2969 925.8696,102.2969 C925.8696,102.2969 907.8696,102.2969 907.8696,92.2969 L907.8696,66.2969" fill="#E2E2F0" style="stroke:#181818;stroke-width:0.5;"/><path d="M907.8696,66.2969 C907.8696,76.2969 925.8696,76.2969 925.8696,76.2969 C925.8696,76.2969 943.8696,76.2969 943.8696,66.2969" fill="none" style="stroke:#181818;stroke-width:0.5;"/></g><g class="participant participant-tail" data-entity-uid="part5" data-qualified-name="DB" id="part5-tail"><text fill="#000000" font-family="sans-serif" font-size="14" lengthAdjust="spacing" textLength="95.7373" x="875.001" y="948.9092">DAI Database</text><path d="M907.8696,962.2109 C907.8696,952.2109 925.8696,952.2109 925.8696,952.2109 C925.8696,952.2109 943.8696,952.2109 943.8696,962.2109 L943.8696,988.2109 C943.8696,998.2109 925.8696,998.2109 925.8696,998.2109 C925.8696,998.2109 907.8696,998.2109 907.8696,988.2109 L907.8696,962.2109" fill="#E2E2F0" style="stroke:#181818;stroke-width:0.5;"/><path d="M907.8696,962.2109 C907.8696,972.2109 925.8696,972.2109 925.8696,972.2109 C925.8696,972.2109 943.8696,972.2109 943.8696,962.2109" fill="none" style="stroke:#181818;stroke-width:0.5;"/></g><g class="participant participant-head" data-entity-uid="part6" data-qualified-name="SIH" id="part6-head"><rect fill="#E2E2F0" height="30.2969" rx="2.5" ry="2.5" style="stroke:#181818;stroke-width:0.5;" width="74.5117" x="986.7383" y="87.2969"/><text fill="#000000" font-family="sans-serif" font-size="14" lengthAdjust="spacing" textLength="60.5117" x="993.7383" y="107.292">SIH / DPI</text></g><g class="participant participant-tail" data-entity-uid="part6" data-qualified-name="SIH" id="part6-tail"><rect fill="#E2E2F0" height="30.2969" rx="2.5" ry="2.5" style="stroke:#181818;stroke-width:0.5;" width="74.5117" x="986.7383" y="935.9141"/><text fill="#000000" font-family="sans-serif" font-size="14" lengthAdjust="spacing" textLength="60.5117" x="993.7383" y="955.9092">SIH / DPI</text></g><g class="participant participant-head" data-entity-uid="part7" data-qualified-name="Anesthesiste" id="part7-head"><rect fill="#E2E2F0" height="30.2969" rx="2.5" ry="2.5" style="stroke:#181818;stroke-width:0.5;" width="103.9131" x="1071.25" y="87.2969"/><text fill="#000000" font-family="sans-serif" font-size="14" lengthAdjust="spacing" textLength="89.9131" x="1078.25" y="107.292">Anesthesiste</text></g><g class="participant participant-tail" data-entity-uid="part7" data-qualified-name="Anesthesiste" id="part7-tail"><rect fill="#E2E2F0" height="30.2969" rx="2.5" ry="2.5" style="stroke:#181818;stroke-width:0.5;" width="103.9131" x="1071.25" y="935.9141"/><text fill="#000000" font-family="sans-serif" font-size="14" lengthAdjust="spacing" textLength="89.9131" x="1078.25" y="955.9092">Anesthesiste</text></g><rect fill="#EEEEEE" height="3" style="stroke:#EEEEEE;stroke-width:1;" width="1180.1631" x="0" y="149.1602"/><line style="stroke:#000000;stroke-width:1;" x1="0" x2="1180.1631" y1="149.1602" y2="149.1602"/><line style="stroke:#000000;stroke-width:1;" x1="0" x2="1180.1631" y1="152.1602" y2="152.1602"/><rect fill="#EEEEEE" height="23.1328" style="stroke:#000000;stroke-width:2;" width="110.7954" x="534.6838" y="138.5938"/><text fill="#000000" font-family="sans-serif" font-size="13" font-weight="bold" lengthAdjust="spacing" textLength="92.2695" x="540.6838" y="154.6606">Initialisation</text><g class="message" data-entity-1="part1" data-entity-2="part2" id="msg1"><polygon fill="#181818" points="257.8867,188.8594,267.8867,192.8594,257.8867,196.8594,261.8867,192.8594" style="stroke:#181818;stroke-width:1;"/><line style="stroke:#181818;stroke-width:1;" x1="32.688" x2="263.8867" y1="192.8594" y2="192.8594"/><text fill="#000000" font-family="sans-serif" font-size="13" lengthAdjust="spacing" textLength="213.1987" x="39.688" y="187.7935">Acc&#233;der au questionnaire pr&#233;-op</text></g><g class="message" data-entity-1="part2" data-entity-2="part3" id="msg2"><polygon fill="#181818" points="453.0068,217.9922,463.0068,221.9922,453.0068,225.9922,457.0068,221.9922" style="stroke:#181818;stroke-width:1;"/><line style="stroke:#181818;stroke-width:1;" x1="269.8867" x2="459.0068" y1="221.9922" y2="221.9922"/><text fill="#000000" font-family="sans-serif" font-size="13" lengthAdjust="spacing" textLength="156.584" x="276.8867" y="216.9263">Demande questionnaire</text></g><g class="message" data-entity-1="part3" data-entity-2="part5" id="msg3"><polygon fill="#181818" points="913.8696,247.125,923.8696,251.125,913.8696,255.125,917.8696,251.125" style="stroke:#181818;stroke-width:1;"/><line style="stroke:#181818;stroke-width:1;" x1="465.0068" x2="919.8696" y1="251.125" y2="251.125"/><text fill="#000000" font-family="sans-serif" font-size="13" lengthAdjust="spacing" textLength="198.2881" x="472.0068" y="246.0591">Charger mod&#232;le questionnaire</text></g><g class="message" data-entity-1="part5" data-entity-2="part3" id="msg4"><polygon fill="#181818" points="476.0068,276.2578,466.0068,280.2578,476.0068,284.2578,472.0068,280.2578" style="stroke:#181818;stroke-width:1;"/><line style="stroke:#181818;stroke-width:1;stroke-dasharray:2,2;" x1="470.0068" x2="924.8696" y1="280.2578" y2="280.2578"/><text fill="#000000" font-family="sans-serif" font-size="13" lengthAdjust="spacing" textLength="91.3047" x="482.0068" y="275.1919">Questionnaire</text></g><g class="message" data-entity-1="part3" data-entity-2="part2" id="msg5"><polygon fill="#181818" points="280.8867,305.3906,270.8867,309.3906,280.8867,313.3906,276.8867,309.3906" style="stroke:#181818;stroke-width:1;"/><line style="stroke:#181818;stroke-width:1;stroke-dasharray:2,2;" x1="274.8867" x2="464.0068" y1="309.3906" y2="309.3906"/><text fill="#000000" font-family="sans-serif" font-size="13" lengthAdjust="spacing" textLength="91.3047" x="286.8867" y="304.3247">Questionnaire</text></g><rect fill="#EEEEEE" height="3" style="stroke:#EEEEEE;stroke-width:1;" width="1180.1631" x="0" y="337.957"/><line style="stroke:#000000;stroke-width:1;" x1="0" x2="1180.1631" y1="337.957" y2="337.957"/><line style="stroke:#000000;stroke-width:1;" x1="0" x2="1180.1631" y1="340.957" y2="340.957"/><rect fill="#EEEEEE" height="23.1328" style="stroke:#000000;stroke-width:2;" width="217.6963" x="481.2334" y="327.3906"/><text fill="#000000" font-family="sans-serif" font-size="13" font-weight="bold" lengthAdjust="spacing" textLength="199.1704" x="487.2334" y="343.4575">Remplissage questionnaire</text><g class="message" data-entity-1="part1" data-entity-2="part2" id="msg6"><polygon fill="#181818" points="257.8867,377.6563,267.8867,381.6563,257.8867,385.6563,261.8867,381.6563" style="stroke:#181818;stroke-width:1;"/><line style="stroke:#181818;stroke-width:1;" x1="32.688" x2="263.8867" y1="381.6563" y2="381.6563"/><text fill="#000000" font-family="sans-serif" font-size="13" lengthAdjust="spacing" textLength="132.1074" x="39.688" y="376.5903">Soumettre r&#233;ponses</text></g><g class="message" data-entity-1="part2" data-entity-2="part3" id="msg7"><polygon fill="#181818" points="453.0068,406.7891,463.0068,410.7891,453.0068,414.7891,457.0068,410.7891" style="stroke:#181818;stroke-width:1;"/><line style="stroke:#181818;stroke-width:1;" x1="269.8867" x2="459.0068" y1="410.7891" y2="410.7891"/><text fill="#000000" font-family="sans-serif" font-size="13" lengthAdjust="spacing" textLength="143.9268" x="276.8867" y="405.7231">Transmettre r&#233;ponses</text></g><rect fill="#EEEEEE" height="3" style="stroke:#EEEEEE;stroke-width:1;" width="1180.1631" x="0" y="439.3555"/><line style="stroke:#000000;stroke-width:1;" x1="0" x2="1180.1631" y1="439.3555" y2="439.3555"/><line style="stroke:#000000;stroke-width:1;" x1="0" x2="1180.1631" y1="442.3555" y2="442.3555"/><rect fill="#EEEEEE" height="23.1328" style="stroke:#000000;stroke-width:2;" width="119.3203" x="530.4214" y="428.7891"/><text fill="#000000" font-family="sans-serif" font-size="13" font-weight="bold" lengthAdjust="spacing" textLength="100.7944" x="536.4214" y="444.856">Traitement IA</text><g class="message" data-entity-1="part3" data-entity-2="part4" id="msg8"><polygon fill="#181818" points="777.5049,479.0547,787.5049,483.0547,777.5049,487.0547,781.5049,483.0547" style="stroke:#181818;stroke-width:1;"/><line style="stroke:#181818;stroke-width:1;" x1="465.0068" x2="783.5049" y1="483.0547" y2="483.0547"/><text fill="#000000" font-family="sans-serif" font-size="13" lengthAdjust="spacing" textLength="300.498" x="472.0068" y="477.9888">Calculer scores (ASA, RCRI, Apfel, Mallampati)</text></g><g class="message" data-entity-1="part4" data-entity-2="part3" id="msg9"><polygon fill="#181818" points="476.0068,508.1875,466.0068,512.1875,476.0068,516.1875,472.0068,512.1875" style="stroke:#181818;stroke-width:1;"/><line style="stroke:#181818;stroke-width:1;stroke-dasharray:2,2;" x1="470.0068" x2="788.5049" y1="512.1875" y2="512.1875"/><text fill="#000000" font-family="sans-serif" font-size="13" lengthAdjust="spacing" textLength="244.4165" x="482.0068" y="507.1216">Scores calcul&#233;s + alertes potentielles</text></g><rect fill="#EEEEEE" height="3" style="stroke:#EEEEEE;stroke-width:1;" width="1180.1631" x="0" y="540.7539"/><line style="stroke:#000000;stroke-width:1;" x1="0" x2="1180.1631" y1="540.7539" y2="540.7539"/><line style="stroke:#000000;stroke-width:1;" x1="0" x2="1180.1631" y1="543.7539" y2="543.7539"/><rect fill="#EEEEEE" height="23.1328" style="stroke:#000000;stroke-width:2;" width="105.8188" x="537.1721" y="530.1875"/><text fill="#000000" font-family="sans-serif" font-size="13" font-weight="bold" lengthAdjust="spacing" textLength="87.293" x="543.1721" y="546.2544">Sauvegarde</text><g class="message" data-entity-1="part3" data-entity-2="part5" id="msg10"><polygon fill="#181818" points="913.8696,580.4531,923.8696,584.4531,913.8696,588.4531,917.8696,584.4531" style="stroke:#181818;stroke-width:1;"/><line style="stroke:#181818;stroke-width:1;" x1="465.0068" x2="919.8696" y1="584.4531" y2="584.4531"/><text fill="#000000" font-family="sans-serif" font-size="13" lengthAdjust="spacing" textLength="196.8281" x="472.0068" y="579.3872">Enregistrer r&#233;ponses + scores</text></g><g class="message" data-entity-1="part5" data-entity-2="part3" id="msg11"><polygon fill="#181818" points="476.0068,609.5859,466.0068,613.5859,476.0068,617.5859,472.0068,613.5859" style="stroke:#181818;stroke-width:1;"/><line style="stroke:#181818;stroke-width:1;stroke-dasharray:2,2;" x1="470.0068" x2="924.8696" y1="613.5859" y2="613.5859"/><text fill="#000000" font-family="sans-serif" font-size="13" lengthAdjust="spacing" textLength="84.335" x="482.0068" y="608.52">Confirmation</text></g><rect fill="#EEEEEE" height="3" style="stroke:#EEEEEE;stroke-width:1;" width="1180.1631" x="0" y="642.1523"/><line style="stroke:#000000;stroke-width:1;" x1="0" x2="1180.1631" y1="642.1523" y2="642.1523"/><line style="stroke:#000000;stroke-width:1;" x1="0" x2="1180.1631" y1="645.1523" y2="645.1523"/><rect fill="#EEEEEE" height="23.1328" style="stroke:#000000;stroke-width:2;" width="163.6079" x="508.2776" y="631.5859"/><text fill="#000000" font-family="sans-serif" font-size="13" font-weight="bold" lengthAdjust="spacing" textLength="145.082" x="514.2776" y="647.6528">Validation m&#233;dicale</text><g class="message" data-entity-1="part7" data-entity-2="part2" id="msg12"><polygon fill="#181818" points="280.8867,681.8516,270.8867,685.8516,280.8867,689.8516,276.8867,685.8516" style="stroke:#181818;stroke-width:1;"/><line style="stroke:#181818;stroke-width:1;" x1="274.8867" x2="1122.2065" y1="685.8516" y2="685.8516"/><text fill="#000000" font-family="sans-serif" font-size="13" lengthAdjust="spacing" textLength="159.7959" x="286.8867" y="680.7856">Consulter dossier pr&#233;-op</text></g><g class="message" data-entity-1="part2" data-entity-2="part3" id="msg13"><polygon fill="#181818" points="453.0068,710.9844,463.0068,714.9844,453.0068,718.9844,457.0068,714.9844" style="stroke:#181818;stroke-width:1;"/><line style="stroke:#181818;stroke-width:1;" x1="269.8867" x2="459.0068" y1="714.9844" y2="714.9844"/><text fill="#000000" font-family="sans-serif" font-size="13" lengthAdjust="spacing" textLength="103.0605" x="276.8867" y="709.9185">Charger dossier</text></g><g class="message" data-entity-1="part3" data-entity-2="part5" id="msg14"><polygon fill="#181818" points="913.8696,740.1172,923.8696,744.1172,913.8696,748.1172,917.8696,744.1172" style="stroke:#181818;stroke-width:1;"/><line style="stroke:#181818;stroke-width:1;" x1="465.0068" x2="919.8696" y1="744.1172" y2="744.1172"/><text fill="#000000" font-family="sans-serif" font-size="13" lengthAdjust="spacing" textLength="134.1768" x="472.0068" y="739.0513">Lire donn&#233;es patient</text></g><g class="message" data-entity-1="part5" data-entity-2="part3" id="msg15"><polygon fill="#181818" points="476.0068,769.25,466.0068,773.25,476.0068,777.25,472.0068,773.25" style="stroke:#181818;stroke-width:1;"/><line style="stroke:#181818;stroke-width:1;stroke-dasharray:2,2;" x1="470.0068" x2="924.8696" y1="773.25" y2="773.25"/><text fill="#000000" font-family="sans-serif" font-size="13" lengthAdjust="spacing" textLength="128.8384" x="482.0068" y="768.1841">Donn&#233;es compl&#232;tes</text></g><g class="message" data-entity-1="part3" data-entity-2="part2" id="msg16"><polygon fill="#181818" points="280.8867,798.3828,270.8867,802.3828,280.8867,806.3828,276.8867,802.3828" style="stroke:#181818;stroke-width:1;"/><line style="stroke:#181818;stroke-width:1;stroke-dasharray:2,2;" x1="274.8867" x2="464.0068" y1="802.3828" y2="802.3828"/><text fill="#000000" font-family="sans-serif" font-size="13" lengthAdjust="spacing" textLength="171.1201" x="286.8867" y="797.3169">Afficher donn&#233;es + scores</text></g><g class="message" data-entity-1="part7" data-entity-2="part2" id="msg17"><polygon fill="#181818" points="280.8867,827.5156,270.8867,831.5156,280.8867,835.5156,276.8867,831.5156" style="stroke:#181818;stroke-width:1;"/><line style="stroke:#181818;stroke-width:1;" x1="274.8867" x2="1122.2065" y1="831.5156" y2="831.5156"/><text fill="#000000" font-family="sans-serif" font-size="13" lengthAdjust="spacing" textLength="109.3193" x="286.8867" y="826.4497">Valider / corriger</text></g><g class="message" data-entity-1="part2" data-entity-2="part3" id="msg18"><polygon fill="#181818" points="453.0068,856.6484,463.0068,860.6484,453.0068,864.6484,457.0068,860.6484" style="stroke:#181818;stroke-width:1;"/><line style="stroke:#181818;stroke-width:1;" x1="269.8867" x2="459.0068" y1="860.6484" y2="860.6484"/><text fill="#000000" font-family="sans-serif" font-size="13" lengthAdjust="spacing" textLength="140.353" x="276.8867" y="855.5825">Enregistrer validation</text></g><g class="message" data-entity-1="part3" data-entity-2="part5" id="msg19"><polygon fill="#181818" points="913.8696,885.7813,923.8696,889.7813,913.8696,893.7813,917.8696,889.7813" style="stroke:#181818;stroke-width:1;"/><line style="stroke:#181818;stroke-width:1;" x1="465.0068" x2="919.8696" y1="889.7813" y2="889.7813"/><text fill="#000000" font-family="sans-serif" font-size="13" lengthAdjust="spacing" textLength="121.8179" x="472.0068" y="884.7153">Mise &#224; jour dossier</text></g><g class="message" data-entity-1="part5" data-entity-2="part3" id="msg20"><polygon fill="#181818" points="476.0068,914.9141,466.0068,918.9141,476.0068,922.9141,472.0068,918.9141" style="stroke:#181818;stroke-width:1;"/><line style="stroke:#181818;stroke-width:1;stroke-dasharray:2,2;" x1="470.0068" x2="924.8696" y1="918.9141" y2="918.9141"/><text fill="#000000" font-family="sans-serif" font-size="13" lengthAdjust="spacing" textLength="84.335" x="482.0068" y="913.8481">Confirmation</text></g><?plantuml-src TLFBZfim5DtxAwvcbQY9PbyfbI3Cg4YDb8Qg-rjmY5kmgMrctO_e1tGv-Gx-f5_IWo4PykWAmJq-Fe-BLxwIb4Gf_VtrcpBvivKwnmV5fUMQPblR7PUcwOwMlL5MpeNWt1jBM_PAQYyQjbxbgc7jwQ7dURP6UwcB1s97pq-tW9Zp7vXJj4q39hx20B8nHGjPiomtLkbo7d1HAWhs_8sT78YIyIrCa_YI9Ki_qYCbunru4sArebGhhxXI3kgDfjLAYD48BJz0BRsdAC-xOo4jSKj8m_L0pR1EpP2500pWk0SdicPTo4kWY0CWYG5O7zYM8AjDqRrMrq10bYUgppSK9qMNazx6JjODJ3WkhnZlEifCMqllCOM1ncWdtTJ35ylQtG3wQp1HNjOzLne5wi4PieSphdAKPCcX9Ebe5cNHWdRhNRgWgDdBQa4RhYgk6yYP2vmvMys64tbWw8wEtX63oUDROx0xa5zLeuQCsnTPiYtaH428zabRMIe7sVPDDwW6FHVPhetUArk7qWFhL-n0CUn0ZROLf0pyaKQQ1-d0Ayy1uhXhAuzx2kESmlFEAfoQ7Y5JfP_wPWfKr1rxY-EVCnMOd8QvGRFTAwAuM85elrVv8R2FmBFF-vA3GU0VmMYjWh2frcbqB-Seff8t2dzPzuU-c_RDqlyY_GS0?></g></svg>