<?plantuml 1.2026.2beta3?><svg xmlns="http://www.w3.org/2000/svg" xmlns:xlink="http://www.w3.org/1999/xlink" contentStyleType="text/css" data-diagram-type="DESCRIPTION" height="1264px" preserveAspectRatio="none" style="width:495px;height:1264px;background:#FFFFFF;" version="1.1" viewBox="0 0 495 1264" width="495px" zoomAndPan="magnify"><title>DAI &#8212; Use Case Diagram</title><defs/><g><g class="title" data-source-line="1"><text fill="#000000" font-family="sans-serif" font-size="14" font-weight="bold" lengthAdjust="spacing" textLength="194.7354" x="143.2123" y="22.9951">DAI &#8212; Use Case Diagram</text></g><!--cluster DAI--><g class="cluster" data-qualified-name="DAI" data-source-line="13" id="ent0009"><rect fill="none" height="1214" rx="2.5" ry="2.5" style="stroke:#181818;stroke-width:1;" width="271.99" x="217.17" y="44.2969"/><text fill="#000000" font-family="sans-serif" font-size="14" font-weight="bold" lengthAdjust="spacing" textLength="27.665" x="339.3325" y="59.292">DAI</text></g><!--entity Remplir questionnaire pr?-op--><g class="entity" data-qualified-name="DAI.Remplir questionnaire pr.-op" data-source-line="15" id="ent0010"><ellipse cx="353.1693" cy="104.3007" fill="#F1F1F1" rx="113.4193" ry="25.0839" style="stroke:#181818;stroke-width:0.5;"/><text fill="#000000" font-family="sans-serif" font-size="14" lengthAdjust="spacing" textLength="205.2559" x="250.5414" y="108.9492">Remplir questionnaire pr&#233;-op</text></g><!--entity Valider questionnaire--><g class="entity" data-qualified-name="DAI.Valider questionnaire" data-source-line="16" id="ent0012"><ellipse cx="353.1701" cy="269.2929" fill="#F1F1F1" rx="88.2801" ry="20.056" style="stroke:#181818;stroke-width:0.5;"/><text fill="#000000" font-family="sans-serif" font-size="14" lengthAdjust="spacing" textLength="149.8369" x="278.2517" y="273.9413">Valider questionnaire</text></g><!--entity Consulter dossier anesth?sie--><g class="entity" data-qualified-name="DAI.Consulter dossier anesth.sie" data-source-line="17" id="ent0014"><ellipse cx="353.1712" cy="189.3011" fill="#F1F1F1" rx="112.1212" ry="24.8242" style="stroke:#181818;stroke-width:0.5;"/><text fill="#000000" font-family="sans-serif" font-size="14" lengthAdjust="spacing" textLength="202.46" x="251.9412" y="193.9496">Consulter dossier anesth&#233;sie</text></g><!--entity Valider alertes--><g class="entity" data-qualified-name="DAI.Valider alertes" data-source-line="18" id="ent0016"><ellipse cx="353.1673" cy="423.2923" fill="#F1F1F1" rx="68.2273" ry="16.0455" style="stroke:#181818;stroke-width:0.5;"/><text fill="#000000" font-family="sans-serif" font-size="14" lengthAdjust="spacing" textLength="101.876" x="302.2293" y="427.9408">Valider alertes</text></g><!--entity G?n?rer rapport anesth?sie--><g class="entity" data-qualified-name="DAI.G.n.rer rapport anesth.sie" data-source-line="19" id="ent0018"><ellipse cx="353.1702" cy="348.3009" fill="#F1F1F1" rx="108.2202" ry="24.044" style="stroke:#181818;stroke-width:0.5;"/><text fill="#000000" font-family="sans-serif" font-size="14" lengthAdjust="spacing" textLength="194.0244" x="256.158" y="352.9494">G&#233;n&#233;rer rapport anesth&#233;sie</text></g><!--entity Suivi per-op temps r?el--><g class="entity" data-qualified-name="DAI.Suivi per-op temps r.el" data-source-line="21" id="ent0020"><ellipse cx="353.1718" cy="495.2952" fill="#F1F1F1" rx="94.4418" ry="21.2884" style="stroke:#181818;stroke-width:0.5;"/><text fill="#000000" font-family="sans-serif" font-size="14" lengthAdjust="spacing" textLength="163.7275" x="271.308" y="499.9437">Suivi per-op temps r&#233;el</text></g><!--entity Enregistrer ?v?nements per-op--><g class="entity" data-qualified-name="DAI.Enregistrer .v.nements per-op" data-source-line="22" id="ent0022"><ellipse cx="353.1723" cy="658.2953" fill="#F1F1F1" rx="119.9923" ry="26.3985" style="stroke:#181818;stroke-width:0.5;"/><text fill="#000000" font-family="sans-serif" font-size="14" lengthAdjust="spacing" textLength="219.3379" x="243.5034" y="662.9438">Enregistrer &#233;v&#233;nements per-op</text></g><!--entity Administrer m?dicaments--><g class="entity" data-qualified-name="DAI.Administrer m.dicaments" data-source-line="23" id="ent0024"><ellipse cx="353.1654" cy="574.296" fill="#F1F1F1" rx="102.3954" ry="22.8791" style="stroke:#181818;stroke-width:0.5;"/><text fill="#000000" font-family="sans-serif" font-size="14" lengthAdjust="spacing" textLength="181.3232" x="262.5038" y="578.9444">Administrer m&#233;dicaments</text></g><!--entity Suivi post-op--><g class="entity" data-qualified-name="DAI.Suivi post-op" data-source-line="25" id="ent0026"><ellipse cx="353.1703" cy="735.2929" fill="#F1F1F1" rx="64.0803" ry="15.2161" style="stroke:#181818;stroke-width:0.5;"/><text fill="#000000" font-family="sans-serif" font-size="14" lengthAdjust="spacing" textLength="91.0137" x="307.6634" y="739.9414">Suivi post-op</text></g><!--entity Calcul score sortie--><g class="entity" data-qualified-name="DAI.Calcul score sortie" data-source-line="26" id="ent0028"><ellipse cx="353.1683" cy="803.2965" fill="#F1F1F1" rx="79.3483" ry="18.2697" style="stroke:#181818;stroke-width:0.5;"/><text fill="#000000" font-family="sans-serif" font-size="14" lengthAdjust="spacing" textLength="129.1377" x="288.5994" y="807.945">Calcul score sortie</text></g><!--entity G?rer utilisateurs & r?les--><g class="entity" data-qualified-name="DAI.G.rer utilisateurs . r.les" data-source-line="28" id="ent0030"><ellipse cx="353.1695" cy="879.2928" fill="#F1F1F1" rx="99.9295" ry="22.3859" style="stroke:#181818;stroke-width:0.5;"/><text fill="#000000" font-family="sans-serif" font-size="14" lengthAdjust="spacing" textLength="175.9023" x="265.2184" y="883.9412">G&#233;rer utilisateurs &amp; r&#244;les</text></g><!--entity Configurer seuils & protocoles--><g class="entity" data-qualified-name="DAI.Configurer seuils . protocoles" data-source-line="29" id="ent0032"><ellipse cx="353.1718" cy="962.2992" fill="#F1F1F1" rx="116.2618" ry="25.6524" style="stroke:#181818;stroke-width:0.5;"/><text fill="#000000" font-family="sans-serif" font-size="14" lengthAdjust="spacing" textLength="211.3604" x="247.4916" y="966.9477">Configurer seuils &amp; protocoles</text></g><!--entity Envoyer constantes vitales--><g class="entity" data-qualified-name="DAI.Envoyer constantes vitales" data-source-line="31" id="ent0034"><ellipse cx="353.1672" cy="1046.2923" fill="#F1F1F1" rx="105.8772" ry="23.5754" style="stroke:#181818;stroke-width:0.5;"/><text fill="#000000" font-family="sans-serif" font-size="14" lengthAdjust="spacing" textLength="188.9316" x="258.7014" y="1050.9408">Envoyer constantes vitales</text></g><!--entity Synchroniser identit? patient--><g class="entity" data-qualified-name="DAI.Synchroniser identit. patient" data-source-line="32" id="ent0036"><ellipse cx="353.1656" cy="1217.298" fill="#F1F1F1" rx="112.7556" ry="24.9511" style="stroke:#181818;stroke-width:0.5;"/><text fill="#000000" font-family="sans-serif" font-size="14" lengthAdjust="spacing" textLength="203.8271" x="251.2521" y="1221.9464">Synchroniser identit&#233; patient</text></g><!--entity Exporter document anesth?sie--><g class="entity" data-qualified-name="DAI.Exporter document anesth.sie" data-source-line="33" id="ent0038"><ellipse cx="353.1663" cy="1131.3001" fill="#F1F1F1" rx="118.3663" ry="26.0733" style="stroke:#181818;stroke-width:0.5;"/><text fill="#000000" font-family="sans-serif" font-size="14" lengthAdjust="spacing" textLength="215.8652" x="245.2337" y="1135.9486">Exporter document anesth&#233;sie</text></g><!--entity Patient--><g class="entity" data-qualified-name="Patient" data-source-line="5" id="ent0002"><ellipse cx="89.588" cy="74.6469" fill="#F1F1F1" rx="8" ry="8" style="stroke:#181818;stroke-width:0.5;"/><path d="M89.588,82.6469 L89.588,109.6469 M76.588,90.6469 L102.588,90.6469 M89.588,109.6469 L76.588,124.6469 M89.588,109.6469 L102.588,124.6469" fill="none" style="stroke:#181818;stroke-width:0.5;"/><text fill="#000000" font-family="sans-serif" font-size="14" lengthAdjust="spacing" textLength="49.376" x="64.9" y="139.142">Patient</text></g><!--entity Anesthesiste--><g class="entity" data-qualified-name="Anesthesiste" data-source-line="6" id="ent0003"><ellipse cx="89.5865" cy="279.6469" fill="#F1F1F1" rx="8" ry="8" style="stroke:#181818;stroke-width:0.5;"/><path d="M89.5865,287.6469 L89.5865,314.6469 M76.5865,295.6469 L102.5865,295.6469 M89.5865,314.6469 L76.5865,329.6469 M89.5865,314.6469 L102.5865,329.6469" fill="none" style="stroke:#181818;stroke-width:0.5;"/><text fill="#000000" font-family="sans-serif" font-size="14" lengthAdjust="spacing" textLength="89.9131" x="44.63" y="344.142">Anesthesiste</text></g><!--entity IADE--><g class="entity" data-qualified-name="IADE" data-source-line="7" id="ent0004"><ellipse cx="89.586" cy="544.6469" fill="#F1F1F1" rx="8" ry="8" style="stroke:#181818;stroke-width:0.5;"/><path d="M89.586,552.6469 L89.586,579.6469 M76.586,560.6469 L102.586,560.6469 M89.586,579.6469 L76.586,594.6469 M89.586,579.6469 L102.586,594.6469" fill="none" style="stroke:#181818;stroke-width:0.5;"/><text fill="#000000" font-family="sans-serif" font-size="14" lengthAdjust="spacing" textLength="33.332" x="72.92" y="609.142">IADE</text></g><!--entity SSPI--><g class="entity" data-qualified-name="SSPI" data-source-line="8" id="ent0005"><ellipse cx="89.585" cy="751.6469" fill="#F1F1F1" rx="8" ry="8" style="stroke:#181818;stroke-width:0.5;"/><path d="M89.585,759.6469 L89.585,786.6469 M76.585,767.6469 L102.585,767.6469 M89.585,786.6469 L76.585,801.6469 M89.585,786.6469 L102.585,801.6469" fill="none" style="stroke:#181818;stroke-width:0.5;"/><text fill="#000000" font-family="sans-serif" font-size="14" lengthAdjust="spacing" textLength="82.79" x="48.19" y="816.142">Equipe SSPI</text></g><!--entity Admin--><g class="entity" data-qualified-name="Admin" data-source-line="9" id="ent0006"><ellipse cx="89.5876" cy="872.6469" fill="#F1F1F1" rx="8" ry="8" style="stroke:#181818;stroke-width:0.5;"/><path d="M89.5876,880.6469 L89.5876,907.6469 M76.5876,888.6469 L102.5876,888.6469 M89.5876,907.6469 L76.5876,922.6469 M89.5876,907.6469 L102.5876,922.6469" fill="none" style="stroke:#181818;stroke-width:0.5;"/><text fill="#000000" font-family="sans-serif" font-size="14" lengthAdjust="spacing" textLength="61.9951" x="58.59" y="937.142">Admin IT</text></g><!--entity Devices--><g class="entity" data-qualified-name="Devices" data-source-line="10" id="ent0007"><ellipse cx="89.5864" cy="1016.6469" fill="#F1F1F1" rx="8" ry="8" style="stroke:#181818;stroke-width:0.5;"/><path d="M89.5864,1024.6469 L89.5864,1051.6469 M76.5864,1032.6469 L102.5864,1032.6469 M89.5864,1051.6469 L76.5864,1066.6469 M89.5864,1051.6469 L102.5864,1066.6469" fill="none" style="stroke:#181818;stroke-width:0.5;"/><text fill="#000000" font-family="sans-serif" font-size="14" lengthAdjust="spacing" textLength="167.1729" x="6" y="1081.142">Dispositifs Biom&#233;dicaux</text></g><!--entity SIH--><g class="entity" data-qualified-name="SIH" data-source-line="11" id="ent0008"><ellipse cx="89.5859" cy="1157.6469" fill="#F1F1F1" rx="8" ry="8" style="stroke:#181818;stroke-width:0.5;"/><path d="M89.5859,1165.6469 L89.5859,1192.6469 M76.5859,1173.6469 L102.5859,1173.6469 M89.5859,1192.6469 L76.5859,1207.6469 M89.5859,1192.6469 L102.5859,1207.6469" fill="none" style="stroke:#181818;stroke-width:0.5;"/><text fill="#000000" font-family="sans-serif" font-size="14" lengthAdjust="spacing" textLength="60.5117" x="59.33" y="1222.142">SIH / DPI</text></g><!--link Patient to Remplir questionnaire pr?-op--><g class="link" data-entity-1="ent0002" data-entity-2="ent0010" data-link-type="dependency" data-source-line="15" id="lnk11"><path d="M114.73,104.2969 C143.31,104.2969 186.92,104.2969 233.43,104.2969" fill="none" id="Patient-to-Remplir questionnaire pr&#233;-op" style="stroke:#181818;stroke-width:1;"/><polygon fill="#181818" points="239.43,104.2969,230.43,100.2969,234.43,104.2969,230.43,108.2969,239.43,104.2969" style="stroke:#181818;stroke-width:1;"/></g><!--link Anesthesiste to Valider questionnaire--><g class="link" data-entity-1="ent0003" data-entity-2="ent0012" data-link-type="dependency" data-source-line="16" id="lnk13"><path d="M134.96,302.5069 C174.32,296.4969 226.639,288.4944 272.909,281.4144" fill="none" id="Anesthesiste-to-Valider questionnaire" style="stroke:#181818;stroke-width:1;"/><polygon fill="#181818" points="278.84,280.5069,269.3385,277.9142,273.8975,281.2631,270.5486,285.8221,278.84,280.5069" style="stroke:#181818;stroke-width:1;"/></g><!--link Anesthesiste to Consulter dossier anesth?sie--><g class="link" data-entity-1="ent0003" data-entity-2="ent0014" data-link-type="dependency" data-source-line="17" id="lnk15"><path d="M134.92,275.6069 C156.45,260.4469 183.23,243.3069 209.17,231.2969 C229.83,221.7269 247.4283,215.4511 269.1783,209.1311" fill="none" id="Anesthesiste-to-Consulter dossier anesth&#233;sie" style="stroke:#181818;stroke-width:1;"/><polygon fill="#181818" points="274.94,207.4569,265.1813,206.1271,270.1386,208.852,267.4136,213.8093,274.94,207.4569" style="stroke:#181818;stroke-width:1;"/></g><!--link Anesthesiste to Valider alertes--><g class="link" data-entity-1="ent0003" data-entity-2="ent0016" data-link-type="dependency" data-source-line="18" id="lnk17"><path d="M134.98,345.4669 C156.31,361.2769 182.91,378.7869 209.17,390.2969 C235.89,402.0069 261.4167,408.7205 287.9967,413.8005" fill="none" id="Anesthesiste-to-Valider alertes" style="stroke:#181818;stroke-width:1;"/><polygon fill="#181818" points="293.89,414.9269,285.8009,409.3085,288.9789,413.9883,284.2991,417.1663,293.89,414.9269" style="stroke:#181818;stroke-width:1;"/></g><!--link Anesthesiste to G?n?rer rapport anesth?sie--><g class="link" data-entity-1="ent0003" data-entity-2="ent0018" data-link-type="dependency" data-source-line="19" id="lnk19"><path d="M134.96,315.9169 C169.72,321.0969 213.2957,327.5916 256.2657,334.0016" fill="none" id="Anesthesiste-to-G&#233;n&#233;rer rapport anesth&#233;sie" style="stroke:#181818;stroke-width:1;"/><polygon fill="#181818" points="262.2,334.8869,253.8887,329.6028,257.2547,334.1492,252.7083,337.5152,262.2,334.8869" style="stroke:#181818;stroke-width:1;"/></g><!--link IADE to Suivi per-op temps r?el--><g class="link" data-entity-1="ent0004" data-entity-2="ent0020" data-link-type="dependency" data-source-line="21" id="lnk21"><path d="M106.6,568.5569 C129.3,560.5069 172.18,545.5669 209.17,534.2969 C235.51,526.2669 259.0139,519.6877 284.2039,512.9477" fill="none" id="IADE-to-Suivi per-op temps r&#233;el" style="stroke:#181818;stroke-width:1;"/><polygon fill="#181818" points="290,511.3969,280.2719,509.8591,285.1699,512.6892,282.3397,517.5872,290,511.3969" style="stroke:#181818;stroke-width:1;"/></g><!--link IADE to Enregistrer ?v?nements per-op--><g class="link" data-entity-1="ent0004" data-entity-2="ent0022" data-link-type="dependency" data-source-line="22" id="lnk23"><path d="M106.65,579.8669 C129.41,587.7269 172.36,602.4269 209.17,614.2969 C232.53,621.8269 252.3934,628.0385 275.3934,635.0885" fill="none" id="IADE-to-Enregistrer &#233;v&#233;nements per-op" style="stroke:#181818;stroke-width:1;"/><polygon fill="#181818" points="281.13,636.8469,273.6974,630.3849,276.3495,635.3816,271.3529,638.0337,281.13,636.8469" style="stroke:#181818;stroke-width:1;"/></g><!--link IADE to Administrer m?dicaments--><g class="link" data-entity-1="ent0004" data-entity-2="ent0024" data-link-type="dependency" data-source-line="23" id="lnk25"><path d="M106.56,574.2969 C134.9,574.2969 190.11,574.2969 244.34,574.2969" fill="none" id="IADE-to-Administrer m&#233;dicaments" style="stroke:#181818;stroke-width:1;"/><polygon fill="#181818" points="250.34,574.2969,241.34,570.2969,245.34,574.2969,241.34,578.2969,250.34,574.2969" style="stroke:#181818;stroke-width:1;"/></g><!--link SSPI to Suivi post-op--><g class="link" data-entity-1="ent0005" data-entity-2="ent0026" data-link-type="dependency" data-source-line="25" id="lnk27"><path d="M131.46,774.1069 C177.15,766.0769 245.3107,754.0862 294.8907,745.3662" fill="none" id="SSPI-to-Suivi post-op" style="stroke:#181818;stroke-width:1;"/><polygon fill="#181818" points="300.8,744.3269,291.2432,741.9463,295.8756,745.193,292.6289,749.8254,300.8,744.3269" style="stroke:#181818;stroke-width:1;"/></g><!--link SSPI to Calcul score sortie--><g class="link" data-entity-1="ent0005" data-entity-2="ent0028" data-link-type="dependency" data-source-line="26" id="lnk29"><path d="M131.46,784.7369 C170.54,788.0169 224.411,792.5549 271.931,796.5449" fill="none" id="SSPI-to-Calcul score sortie" style="stroke:#181818;stroke-width:1;"/><polygon fill="#181818" points="277.91,797.0469,269.2762,792.3079,272.9275,796.6285,268.6069,800.2798,277.91,797.0469" style="stroke:#181818;stroke-width:1;"/></g><!--link Admin to G?rer utilisateurs & r?les--><g class="link" data-entity-1="ent0006" data-entity-2="ent0030" data-link-type="dependency" data-source-line="28" id="lnk31"><path d="M120.85,899.6369 C154.6,896.6669 204.8832,892.2536 253.4532,887.9736" fill="none" id="Admin-to-G&#233;rer utilisateurs &amp; r&#244;les" style="stroke:#181818;stroke-width:1;"/><polygon fill="#181818" points="259.43,887.4469,250.1136,884.2523,254.4493,887.8858,250.8159,892.2215,259.43,887.4469" style="stroke:#181818;stroke-width:1;"/></g><!--link Admin to Configurer seuils & protocoles--><g class="link" data-entity-1="ent0006" data-entity-2="ent0032" data-link-type="dependency" data-source-line="29" id="lnk33"><path d="M120.85,909.2369 C157.36,917.6169 214.3418,930.6858 265.3218,942.3758" fill="none" id="Admin-to-Configurer seuils &amp; protocoles" style="stroke:#181818;stroke-width:1;"/><polygon fill="#181818" points="271.17,943.7169,263.2917,937.8065,266.2965,942.5994,261.5037,945.6041,271.17,943.7169" style="stroke:#181818;stroke-width:1;"/></g><!--link Devices to Envoyer constantes vitales--><g class="link" data-entity-1="ent0007" data-entity-2="ent0034" data-link-type="dependency" data-source-line="31" id="lnk35"><path d="M173.35,1046.2969 C196.7,1046.2969 216.42,1046.2969 240.9,1046.2969" fill="none" id="Devices-to-Envoyer constantes vitales" style="stroke:#181818;stroke-width:1;"/><polygon fill="#181818" points="246.9,1046.2969,237.9,1042.2969,241.9,1046.2969,237.9,1050.2969,246.9,1046.2969" style="stroke:#181818;stroke-width:1;"/></g><!--link SIH to Synchroniser identit? patient--><g class="link" data-entity-1="ent0008" data-entity-2="ent0036" data-link-type="dependency" data-source-line="32" id="lnk37"><path d="M120.34,1190.7069 C152.41,1194.3869 199.239,1199.7636 246.349,1205.1636" fill="none" id="SIH-to-Synchroniser identit&#233; patient" style="stroke:#181818;stroke-width:1;"/><polygon fill="#181818" points="252.31,1205.8469,243.8241,1200.848,247.3425,1205.2775,242.913,1208.7959,252.31,1205.8469" style="stroke:#181818;stroke-width:1;"/></g><!--link SIH to Exporter document anesth?sie--><g class="link" data-entity-1="ent0008" data-entity-2="ent0038" data-link-type="dependency" data-source-line="33" id="lnk39"><path d="M120.34,1180.9269 C155.76,1173.3469 210.5829,1161.6029 260.9829,1150.8129" fill="none" id="SIH-to-Exporter document anesth&#233;sie" style="stroke:#181818;stroke-width:1;"/><polygon fill="#181818" points="266.85,1149.5569,257.212,1147.5296,261.9608,1150.6036,258.8868,1155.3523,266.85,1149.5569" style="stroke:#181818;stroke-width:1;"/></g><?plantuml-src VP91Rjmm34NtFWMHHT0i1hr1WUbuq7WNTDBk1PapGq2M794o4XG5UeXUmllUm3VfIKhPCb8NGJUsPJvI_FmK4eTGxnlu_UCdV664Wz57JUOIJLTL3iy24Y3IvIhGKaGh57nL6IiXmeCHGY_bjFV8SaKc5Yo_cdrzB9ytnwT4FSBfzD3SWE7vOutjsuuyD8zpO3wiaPgu3qn2PuQF5BffRCcQz3oJDGvaaLVsrDp3UwZN-irzLUM6ZRyKaT-g2jQcORVx0Ey-OzSxYl2Kj7TLvergX3vEuoxqTqh_BMf9-MeSjVXFojle8NXEJXHk0pFfsypCDEhX_zMDmoZ8RqEVfj5FOrGichuFKRPrDISFVc5FYGQ27gCA0b6v3AeEtTs6Elg85xqWrvp6GUjZfqFYahY5PuCAN0oPuVdcRElcvi1IAho63iRPv81jq6cp2YXjBtkmQiprav0ZDe8fCjngwxzScSehgcC-qoLbd36Hos0VWmGRPbZfiYchs26yA6pL7jqE7JCC9AOKpbkqzF_YxJK6LQgickA5P1gXN_PdWnwVimkpppRbMMmD-Vu7?></g></svg>